<svg id="Capa_1" enable-background="new 0 0 511.965 511.965" height="512" viewBox="0 0 511.965 511.965" width="512" xmlns="http://www.w3.org/2000/svg"><path d="m182.983 110.334v27.87c0 40.31 32.794 73.104 73.104 73.104s73.104-32.794 73.104-73.104v-27.87z" fill="#ffcebf"/><path d="m256.124 110.334v100.973c40.293-.02 73.067-32.806 73.067-73.103v-27.87z" fill="#ffc0a0"/><path d="m86.144 262.982-27.943-87.678c-4.222-13.246 2.803-27.457 15.89-32.148l.384-.138c13.856-4.966 29.054 2.638 33.388 16.705l15.902 51.617h336.019c14.26 0 25.821 11.56 25.821 25.821 0 14.26-11.56 25.821-25.821 25.821z" fill="#ffcebf"/><path d="m459.784 211.34h-203.658v51.642h203.658c14.26 0 25.821-11.561 25.821-25.821 0-14.261-11.561-25.821-25.821-25.821z" fill="#ffc0a0"/><path d="m256.087 39.629c-40.31 0-73.104 32.794-73.104 73.104v16.909h146.208v-16.909c0-40.309-32.794-73.104-73.104-73.104z" fill="#ff3943"/><path d="m329.191 112.733c0-40.297-32.774-73.083-73.067-73.103v90.012h73.067z" fill="#e31414"/><path d="m185.067 377.627 142.118-.479v-165.841h-19.999v45.244c-7.878-4.19-16.856-6.574-26.384-6.574-8.671 0-17.046 1.938-24.676 5.667-7.629-3.728-16.005-5.667-24.676-5.667-9.528 0-18.506 2.384-26.384 6.574v-45.244h-19.999z" fill="#ff3943"/><path d="m327.185 211.307h-19.999v45.244c-7.878-4.19-16.856-6.574-26.384-6.574-8.671 0-17.046 1.938-24.676 5.667v121.744l71.059-.24z" fill="#e31414"/><path d="m511.965 392.331c-14.28 0-27.222-5.833-36.569-15.243-9.348 9.41-22.289 15.243-36.569 15.243s-27.221-5.833-36.569-15.243c-9.348 9.411-22.289 15.243-36.569 15.243s-27.221-5.833-36.569-15.243c-9.348 9.411-22.289 15.243-36.569 15.243s-27.221-5.833-36.569-15.243c-9.348 9.411-22.289 15.243-36.569 15.243s-27.221-5.833-36.569-15.243c-9.348 9.411-22.289 15.243-36.569 15.243s-27.221-5.833-36.569-15.243c-9.348 9.411-22.289 15.243-36.569 15.243s-27.222-5.833-36.569-15.243c-9.346 9.41-22.288 15.243-36.568 15.243v-30c11.893 0 21.569-9.676 21.569-21.569h30c0 11.894 9.676 21.569 21.569 21.569s21.569-9.676 21.569-21.569h30c0 11.894 9.676 21.569 21.569 21.569s21.569-9.676 21.569-21.569h30c0 11.894 9.676 21.569 21.569 21.569s21.569-9.676 21.569-21.569h30c0 11.894 9.676 21.569 21.569 21.569s21.569-9.676 21.569-21.569h30c0 11.894 9.676 21.569 21.569 21.569s21.569-9.676 21.569-21.569h30c0 11.894 9.676 21.569 21.569 21.569 11.894 0 21.569-9.676 21.569-21.569h30c0 11.894 9.676 21.569 21.569 21.569v30z" fill="#25d9f8"/><path d="m511.965 472.335c-14.28 0-27.222-5.833-36.569-15.243-9.348 9.411-22.289 15.243-36.569 15.243s-27.221-5.833-36.569-15.243c-9.348 9.41-22.289 15.243-36.569 15.243s-27.221-5.833-36.569-15.243c-9.348 9.41-22.289 15.243-36.569 15.243s-27.221-5.833-36.569-15.243c-9.348 9.41-22.289 15.243-36.569 15.243s-27.221-5.833-36.569-15.243c-9.348 9.41-22.289 15.243-36.569 15.243s-27.221-5.833-36.569-15.243c-9.348 9.41-22.289 15.243-36.569 15.243s-27.222-5.833-36.569-15.243c-9.346 9.411-22.288 15.243-36.568 15.243v-30c11.893 0 21.569-9.676 21.569-21.569h30c0 11.893 9.676 21.569 21.569 21.569s21.569-9.676 21.569-21.569h30c0 11.893 9.676 21.569 21.569 21.569s21.569-9.676 21.569-21.569h30c0 11.893 9.676 21.569 21.569 21.569s21.569-9.676 21.569-21.569h30c0 11.893 9.676 21.569 21.569 21.569s21.569-9.676 21.569-21.569h30c0 11.893 9.676 21.569 21.569 21.569s21.569-9.676 21.569-21.569h30c0 11.893 9.676 21.569 21.569 21.569 11.894 0 21.569-9.676 21.569-21.569h30c0 11.893 9.676 21.569 21.569 21.569v30z" fill="#25d9f8"/><g fill="#00c0f1"><path d="m329.12 377.087c9.348 9.411 22.289 15.243 36.569 15.243s27.221-5.833 36.569-15.243c9.348 9.411 22.289 15.243 36.569 15.243s27.222-5.833 36.569-15.243c9.347 9.41 22.289 15.243 36.569 15.243v-30c-11.893 0-21.569-9.676-21.569-21.569h-30c0 11.894-9.676 21.569-21.569 21.569s-21.569-9.676-21.569-21.569h-30c0 11.894-9.676 21.569-21.569 21.569s-21.569-9.676-21.569-21.569h-30c0 11.894-9.676 21.569-21.569 21.569s-21.569-9.676-21.569-21.569h-14.856v36.464c9.337 9.328 22.216 15.105 36.425 15.105 14.281.001 27.221-5.832 36.569-15.243z"/><path d="m292.551 472.335c14.28 0 27.221-5.833 36.569-15.243 9.348 9.41 22.289 15.243 36.569 15.243s27.221-5.833 36.569-15.243c9.348 9.41 22.289 15.243 36.569 15.243s27.222-5.833 36.569-15.243c9.347 9.411 22.289 15.243 36.569 15.243v-30c-11.893 0-21.569-9.676-21.569-21.569h-30c0 11.893-9.676 21.569-21.569 21.569s-21.569-9.676-21.569-21.569h-30c0 11.893-9.676 21.569-21.569 21.569s-21.569-9.676-21.569-21.569h-30c0 11.893-9.676 21.569-21.569 21.569s-21.569-9.676-21.569-21.569h-14.856v36.464c9.337 9.328 22.216 15.105 36.425 15.105z"/></g></svg>