<svg id="Capa_1" enable-background="new 0 0 512.004 512.004" height="512" viewBox="0 0 512.004 512.004" width="512" xmlns="http://www.w3.org/2000/svg"><path d="m117.167 25.135c-23.014 0-41.738 18.724-41.738 41.738v179.478h83.476v-179.478c0-23.015-18.724-41.738-41.738-41.738z" fill="#ff931e"/><path d="m165.858 102.244h-165.858v-75.395h30v45.395h135.858z" fill="#61729b"/><path d="m512.004 102.244h-79.653v-30h49.653v-45.395h30z" fill="#61729b"/><path d="m512.004 102.244h-79.653v-30h49.653v-45.395h30z" fill="#47568c"/><path d="m158.905 382.215h288.446v104.654h-288.446z" fill="#ffa918"/><path d="m303.128 382.215h144.223v104.654h-144.223z" fill="#ff931e"/><path d="m158.905 412.215h288.446v-334.366c0-29.066-23.647-52.714-52.714-52.714h-277.47c23.014 0 41.738 18.724 41.738 41.738z" fill="#fedb41"/><path d="m447.351 77.849c0-29.066-23.647-52.714-52.714-52.714h-91.508v387.081h144.223v-334.367z" fill="#fcbf29"/></svg>