<svg id="Capa_1" enable-background="new 0 0 511.96 511.96" height="512" viewBox="0 0 511.96 511.96" width="512" xmlns="http://www.w3.org/2000/svg"><path d="m320.981 278.517h130.976v-169.069h-283.954v15z" fill="#ff931e"/><path d="m320.981 278.517h130.976v-169.069h-283.954v15z" fill="#fc7718"/><path d="m421.957 109.448h90.004v169.069h-90.004z" fill="#dcdcff"/><path d="m421.957 109.448h90.004v169.069h-90.004z" fill="#acacda"/><path d="m0 193.982v123.996c0 24.802 19.038 47.113 53.607 62.824 30.806 14 71.433 21.71 114.396 21.71s83.59-7.71 114.396-21.71c34.569-15.71 53.607-38.021 53.607-62.824v-123.996z" fill="#fcbf29"/><path d="m168.003 193.982v208.53c42.963 0 83.59-7.71 114.396-21.71 34.569-15.71 53.607-38.021 53.607-62.824v-123.996z" fill="#ffa918"/><path d="m153.003 263.517h30v47.332h-30z" fill="#ff931e"/><path d="m168.003 263.517h15v47.332h-15z" fill="#fc7718"/><path d="m271.01 244.981h30v48.367h-30z" fill="#ff931e"/><path d="m271.01 244.981h30v48.367h-30z" fill="#fc7718"/><g fill="#ff931e"><path d="m34.996 244.981h30v48.367h-30z"/><path d="m94 259.396h30v76.453h-30z"/><path d="m212.007 259.396h30v76.453h-30z"/></g><path d="m212.007 259.396h30v76.453h-30z" fill="#fc7718"/><path d="m282.399 131.158c-30.806-14-71.432-21.71-114.396-21.71s-83.59 7.71-114.396 21.71c-34.569 15.711-53.607 38.022-53.607 62.824s19.038 47.113 53.607 62.824c30.806 14 71.433 21.71 114.396 21.71s83.59-7.71 114.396-21.71c34.569-15.71 53.607-38.021 53.607-62.824s-19.038-47.113-53.607-62.824z" fill="#fedb41"/><path d="m282.399 131.158c-30.806-14-71.432-21.71-114.396-21.71v169.068c42.963 0 83.59-7.71 114.396-21.71 34.569-15.71 53.607-38.021 53.607-62.824s-19.038-47.113-53.607-62.824z" fill="#fcbf29"/><path d="m210.126 170.923c-11.415-2.459-26.375-3.814-42.123-3.814-15.749 0-30.708 1.354-42.124 3.814-6.92 1.491-27.979 6.029-27.979 23.06s21.06 21.568 27.979 23.059c11.415 2.459 26.375 3.814 42.124 3.814s30.708-1.354 42.123-3.814c6.92-1.491 27.979-6.029 27.979-23.059.001-17.031-21.058-21.569-27.979-23.06z" fill="#ff931e"/><path d="m210.126 170.923c-11.415-2.459-26.375-3.814-42.123-3.814v53.747c15.749 0 30.708-1.354 42.123-3.814 6.92-1.491 27.979-6.029 27.979-23.059.001-17.031-21.058-21.569-27.979-23.06z" fill="#fc7718"/></svg>