<svg id="Capa_1" enable-background="new 0 0 511.96 511.96" height="512" viewBox="0 0 511.96 511.96" width="512" xmlns="http://www.w3.org/2000/svg"><path d="m106.631 163.074h35.153v30h-35.153z" fill="#61729b"/><path d="m106.631 220.854h35.153v30h-35.153z" fill="#61729b"/><path d="m405.329 115.073-7.282-4.37c-29.131-17.479-47.227-49.44-47.227-83.411v-27.292h-169.527v27.293c0 33.971-18.096 65.932-47.227 83.411l-7.282 4.37v18.493h278.545z" fill="#47568c"/><path d="m405.329 115.073-7.282-4.37c-29.131-17.479-47.227-49.44-47.227-83.411v-27.292h-84.764v133.566h139.272v-18.493z" fill="#2c3b73"/><path d="m126.784 378.394v18.493l7.282 4.37c29.131 17.479 47.227 49.439 47.227 83.41v27.293h169.527v-27.293c0-33.971 18.096-65.932 47.227-83.41l7.282-4.37v-18.493z" fill="#47568c"/><path d="m266.057 378.394v133.566h84.764v-27.293c0-33.971 18.096-65.932 47.227-83.41l7.282-4.37v-18.493z" fill="#2c3b73"/><path d="m126.784 115.073h278.545v281.814h-278.545z" fill="#f2f2fc"/><path d="m266.057 115.073h139.272v281.814h-139.272z" fill="#dcdcff"/><path d="m317.944 179.619c-7.591-7.59-17.683-11.771-28.417-11.771-8.543 0-16.679 2.647-23.47 7.554-6.792-4.907-14.927-7.554-23.47-7.554-10.734 0-20.826 4.18-28.417 11.771-15.669 15.669-15.669 41.165 0 56.833l51.887 51.886 51.887-51.886c15.669-15.668 15.669-41.163 0-56.833z" fill="#ff6c6c"/><path d="m317.944 179.619c-7.591-7.59-17.683-11.771-28.417-11.771-8.543 0-16.679 2.647-23.47 7.554v112.937l51.887-51.886c15.669-15.669 15.669-41.164 0-56.834z" fill="#ff3943"/><path d="m249.704 313.924h32.705v30h-32.705z" fill="#25d9f8"/><path d="m266.057 313.924h16.353v30h-16.353z" fill="#00c0f1"/><path d="m195.196 313.924h32.705v30h-32.705z" fill="#25d9f8"/><path d="m304.213 313.924h32.705v30h-32.705z" fill="#25d9f8"/><path d="m304.213 313.924h32.705v30h-32.705z" fill="#00c0f1"/></svg>