<svg id="Capa_1" enable-background="new 0 0 512 512" height="512" viewBox="0 0 512 512" width="512" xmlns="http://www.w3.org/2000/svg"><path d="m83.699 0h88.004v236.956h-88.004z" fill="#61729b"/><path d="m127.701 0h44.002v236.956h-44.002z" fill="#47568c"/><path d="m340.297 0h88.004v113.663h-88.004z" fill="#61729b"/><path d="m384.299 0h44.002v113.663h-44.002z" fill="#47568c"/><path d="m442.301 147.284v-63.621h-116.005v63.621c-42.634 21.694-69.664 65.306-69.664 113.758 0 70.396 57.271 127.667 127.667 127.667s127.666-57.271 127.666-127.667c0-48.453-27.03-92.064-69.664-113.758z" fill="#ffa918"/><path d="m442.301 147.284v-63.621h-58.002v305.045c70.396 0 127.666-57.271 127.666-127.667 0-48.452-27.03-92.063-69.664-113.757z" fill="#ff931e"/><path d="m185.704 270.576v-63.62h-116.005v63.62c-42.633 21.694-69.664 65.306-69.664 113.758 0 70.395 57.271 127.666 127.666 127.666s127.667-57.271 127.667-127.667c0-48.451-27.03-92.062-69.664-113.757z" fill="#ffa918"/><path d="m185.704 270.576v-63.62h-58.003v305.044c70.396 0 127.667-57.271 127.667-127.667 0-48.451-27.03-92.062-69.664-113.757z" fill="#ff931e"/><g fill="#fff"><path d="m127.701 311.379c-40.228 0-72.954 32.727-72.954 72.955s32.727 72.955 72.954 72.955 72.955-32.727 72.955-72.955-32.727-72.955-72.955-72.955z"/><path d="m384.299 188.087c-40.228 0-72.955 32.727-72.955 72.955s32.728 72.955 72.955 72.955 72.954-32.727 72.954-72.955-32.726-72.955-72.954-72.955z"/></g></svg>