<svg id="Capa_1" enable-background="new 0 0 511.904 511.904" height="512" viewBox="0 0 511.904 511.904" width="512" xmlns="http://www.w3.org/2000/svg"><path d="m323.965 122.066c25.335 0 45.946-20.611 45.946-45.946s-20.611-45.946-45.946-45.946h-53.013v-30.174h-30v30.173h-34.417v91.892h117.43zm0-30.555h-18.595v-30.783h18.595c8.487 0 15.392 6.905 15.392 15.392 0 8.486-6.906 15.391-15.392 15.391z" fill="#47568c"/><path d="m323.965 30.173h-53.013v-30.173h-15v122.066h68.013c25.335 0 45.946-20.611 45.946-45.946 0-25.336-20.611-45.947-45.946-45.947zm0 61.338h-18.595v-30.783h18.595c8.487 0 15.392 6.905 15.392 15.392 0 8.486-6.906 15.391-15.392 15.391z" fill="#2c3b73"/><path d="m329.445 90.399h-146.986l-45.84 52.388v369.117h238.665v-369.117z" fill="#ff6c6c"/><g fill="#ff3943"><path d="m375.284 142.787-45.839-52.388h-73.493v421.505h119.332z"/><path d="m136.619 183.967h238.665v30h-238.665z"/><path d="m136.619 248.504h238.665v30h-238.665z"/></g><path d="m255.952 183.967h119.333v30h-119.333z" fill="#e31414"/><path d="m255.952 248.504h119.333v30h-119.333z" fill="#e31414"/></svg>