<svg id="Capa_1" enable-background="new 0 0 512.006 512.006" height="512" viewBox="0 0 512.006 512.006" width="512" xmlns="http://www.w3.org/2000/svg"><path d="m222.889 134.766h92.395c28.417 0 51.453-23.036 51.453-51.453v-17.981h-202.95l-163.787 124.975v10.328h180.16z" fill="#ffcebf"/><path d="m0 190.307v167.338l119.632 89.029h264.188c17.699 0 32.046-14.348 32.046-32.046 0-17.699-14.348-32.046-32.046-32.046h-128.885 128.885 42.729c17.699 0 32.046-14.348 32.046-32.046 0-17.699-14.348-32.046-32.046-32.046h-171.614 171.613 53.411c17.699 0 32.047-14.348 32.047-32.047s-14.348-32.047-32.047-32.047h-140.822-84.202 84.202l64.089-82.43-48.091-56.109c-9.436 11.541-23.781 18.912-39.851 18.912h-25.481l23.165 29.187-23.142 26.348z" fill="#ffc0a0"/><path d="m256.011 65.332v69.434h59.273c28.417 0 51.453-23.036 51.453-51.453v-17.981z" fill="#ffc0a0"/><g fill="#ffa489"><path d="m339.137 254.394 64.089-82.43-48.091-56.109c-9.436 11.541-23.781 18.912-39.851 18.912h-25.481l23.165 29.187-23.142 26.348-33.814.001v64.092h83.125z"/><path d="m256.011 382.58h127.809 42.729c17.699 0 32.046-14.348 32.046-32.046 0-17.699-14.348-32.047-32.046-32.047h-170.538z"/><path d="m479.959 254.394h-140.822-83.126v64.093h170.538 53.411c17.699 0 32.046-14.348 32.046-32.047s-14.348-32.046-32.047-32.046z"/><path d="m256.011 446.673h127.809c17.699 0 32.047-14.348 32.047-32.046 0-17.699-14.348-32.046-32.047-32.046h-127.809z"/></g></svg>