<svg id="Capa_1" enable-background="new 0 0 512.325 512.325" height="512" viewBox="0 0 512.325 512.325" width="512" xmlns="http://www.w3.org/2000/svg"><path d="m256.341 115.463c-86.584 0-157.025 70.441-157.025 157.025s70.441 157.025 157.025 157.025c86.583 0 157.025-70.441 157.025-157.025s-70.442-157.025-157.025-157.025z" fill="#f2f2fc"/><path d="m256.341 115.463v314.05c86.583 0 157.025-70.441 157.025-157.025s-70.442-157.025-157.025-157.025z" fill="#dcdcff"/><path d="m256.341 168.107c-57.556 0-104.382 46.825-104.382 104.381s46.826 104.382 104.382 104.382 104.381-46.826 104.381-104.382-46.825-104.381-104.381-104.381z" fill="#9cdd05"/><path d="m256.341 168.107v208.763c57.556 0 104.381-46.826 104.381-104.382s-46.825-104.381-104.381-104.381z" fill="#6b0"/><path d="m253.523 311.752-44.453-33.577 18.081-23.938 21.087 15.927 30.201-38.037 23.494 18.654z" fill="#f2f2fc"/><path d="m278.439 232.127-22.098 27.832v48.244l45.592-57.422z" fill="#dcdcff"/><path d="m89.611 80.043v69.587c0 8.256-6.604 14.984-14.805 15.216v-84.803h-30v84.803c-8.202-.231-14.806-6.959-14.806-15.216v-69.587h-30v69.587c0 24.799 20.06 44.993 44.806 45.227v252.36h30v-252.36c24.745-.234 44.805-20.427 44.805-45.227v-69.587z" fill="#61729b"/><path d="m89.611 80.043v69.587c0 8.256-6.604 14.984-14.805 15.216v-84.803h-15v367.174h15v-252.36c24.745-.234 44.805-20.427 44.805-45.227v-69.587z" fill="#47568c"/><path d="m512.325 98.487c0-18.405-14.974-33.379-33.378-33.379-17.425 0-31.719 13.089-33.25 30.445l-16.411 186.023c-.828 9.394 2.349 18.77 8.717 25.725s15.43 10.943 24.859 10.943h19.463v123.731h30z" fill="#61729b"/><path d="m482.325 65.278v252.966 123.731h30v-343.488c0-17.265-13.176-31.51-30-33.209z" fill="#47568c"/></svg>