<svg id="Capa_1" enable-background="new 0 0 512.016 512.016" height="512" viewBox="0 0 512.016 512.016" width="512" xmlns="http://www.w3.org/2000/svg"><path d="m424.504 0h-336.992c-48.254 0-87.512 39.258-87.512 87.512v336.992c0 48.254 39.258 87.512 87.512 87.512h336.992c48.254 0 87.512-39.258 87.512-87.512v-336.992c0-48.254-39.258-87.512-87.512-87.512z" fill="#00c0f1"/><path d="m424.504 0h-168.496v512.016h168.496c48.254 0 87.512-39.258 87.512-87.512v-336.992c0-48.254-39.258-87.512-87.512-87.512z" fill="#009ae4"/><path d="m391.698 13.02-1.734-13.02h-267.923l-1.727 13.03c-.772 5.832-1.148 11.664-1.148 17.829 0 75.455 61.387 136.842 136.842 136.842s136.842-61.388 136.842-136.843c0-6.268-.367-11.937-1.152-17.838z" fill="#f2f2fc"/><path d="m391.698 13.02-1.734-13.02h-133.956v167.701c75.455 0 136.842-61.387 136.842-136.842 0-6.269-.367-11.938-1.152-17.839z" fill="#dcdcff"/><path d="m241.008 83.494v83.381c4.928.54 9.931.826 15 .826s10.072-.286 15-.826v-83.381z" fill="#47568c"/><path d="m256.008 83.494v84.206c5.069 0 10.072-.286 15-.826v-83.38z" fill="#2c3b73"/><path d="m126.147 146.822-4.503-5.549h-68.652v317.735h178.014v-255.237l-12.359-2.21c-36.274-6.488-69.124-25.928-92.5-54.739z" fill="#47568c"/><path d="m390.372 141.274-4.503 5.549c-23.375 28.809-56.223 48.248-92.492 54.737l-12.358 2.211v255.238h178.014v-317.735z" fill="#47568c"/><path d="m390.372 141.274-4.503 5.549c-23.375 28.809-56.223 48.248-92.492 54.737l-12.358 2.211v255.238h178.014v-317.735z" fill="#2c3b73"/></svg>