<svg id="Capa_1" enable-background="new 0 0 511.999 511.999" height="512" viewBox="0 0 511.999 511.999" width="512" xmlns="http://www.w3.org/2000/svg"><path d="m271.008 429.672v-197.452h-30v197.452c-30.85 6.869-53.989 34.439-53.989 67.328h137.979c0-32.89-23.141-60.459-53.99-67.328z" fill="#dcdcff"/><path d="m271.008 429.672v-197.452h-15v264.78h68.99c0-32.89-23.141-60.459-53.99-67.328z" fill="#acacda"/><path d="m176.393 163.181 12.508 22.331c7.924 14.146 12.112 30.297 12.112 46.708v15h109.973v-15c0-16.389 4.194-32.541 12.129-46.709l12.504-22.329h-159.226z" fill="#47568c"/><path d="m256.008 163.181v84.038h54.979v-15c0-16.389 4.194-32.541 12.129-46.709l12.504-22.329z" fill="#2c3b73"/><path d="m253.516.03c-26.84.634-52.047 11.645-70.979 31.004-18.926 19.353-29.379 44.797-29.435 71.646-.052 24.81 8.858 48.792 25.09 67.526 4.01 4.628 7.612 9.777 10.708 15.305l4.296 7.67h125.621l4.296-7.67c3.105-5.545 6.72-10.712 10.742-15.361 16.147-18.667 25.04-42.551 25.04-67.253.001-57.566-47.561-104.243-105.379-102.867z" fill="#ff6c6c"/><path d="m256.008.003v193.178h62.811l4.296-7.67c3.105-5.545 6.72-10.712 10.742-15.361 16.147-18.667 25.04-42.551 25.04-67.253-.001-56.736-46.204-102.894-102.889-102.894z" fill="#ff3943"/><path d="m117.678 481.999h276.643v30h-276.643z" fill="#47568c"/><path d="m256.008 481.999h138.313v30h-138.313z" fill="#2c3b73"/></svg>