<svg id="Capa_1" enable-background="new 0 0 511.952 511.952" height="512" viewBox="0 0 511.952 511.952" width="512" xmlns="http://www.w3.org/2000/svg"><path d="m295.849 511.952h-200.475c-34.228 0-62.073-27.846-62.073-62.073v-223.693h30v223.692c0 17.685 14.388 32.073 32.073 32.073h200.476c17.685 0 32.073-14.388 32.073-32.073v-3.277h-32.073c-34.227 0-62.073-27.846-62.073-62.073v-19.937c0-34.227 27.846-62.073 62.073-62.073s62.073 27.846 62.073 62.073v52.009h58.655c17.685 0 32.073-14.388 32.073-32.073v-207.814h30v207.815c0 34.227-27.846 62.073-62.073 62.073h-58.655v3.277c0 34.227-27.847 62.074-62.074 62.074zm0-179.432c-17.685 0-32.073 14.388-32.073 32.073v19.937c0 17.685 14.388 32.073 32.073 32.073h32.073v-52.009c.001-17.687-14.388-32.074-32.073-32.074z" fill="#dcdcff"/><path d="m448.651 176.713v207.815c0 17.685-14.388 32.073-32.073 32.073h-58.655v-52.009c0-34.227-27.846-62.073-62.073-62.073v30c17.685 0 32.073 14.388 32.073 32.073v52.009h-32.073v30h32.073v3.277c0 17.685-14.388 32.073-32.073 32.073v30c34.227 0 62.073-27.846 62.073-62.073v-3.277h58.655c34.228 0 62.073-27.846 62.073-62.073v-207.815z" fill="#acacda"/><path d="m415.421 106.33h96.46v85.383h-96.46z" fill="#ffa918"/><path d="m463.651 106.33h48.23v85.383h-48.23z" fill="#ff931e"/><path d="m463.651 0c-26.594 0-48.23 21.636-48.23 48.23v88.1h96.46v-88.1c0-26.594-21.636-48.23-48.23-48.23z" fill="#fedb41"/><path d="m511.881 48.23c0-26.594-21.636-48.23-48.23-48.23v136.33h48.23z" fill="#fcbf29"/><path d="m.071 155.803h96.46v85.383h-96.46z" fill="#ffa918"/><path d="m48.301 155.803h48.23v85.383h-48.23z" fill="#ff931e"/><path d="m48.301 49.473c-26.594 0-48.23 21.636-48.23 48.23v88.1h96.46v-88.1c0-26.594-21.636-48.23-48.23-48.23z" fill="#fedb41"/><path d="m96.531 97.703c0-26.594-21.636-48.23-48.23-48.23v136.33h48.23z" fill="#fcbf29"/></svg>