<svg id="Capa_1" enable-background="new 0 0 511.906 511.906" height="512" viewBox="0 0 511.906 511.906" width="512" xmlns="http://www.w3.org/2000/svg"><path d="m236.148 199.468-25.665-15.533 37.494-61.949 181.027-22.917 3.767 29.762-166.638 21.096z" fill="#47568c"/><path d="m432.771 128.831-3.767-29.762-173.043 21.906v45.758l10.172-16.806z" fill="#2c3b73"/><path d="m496.906 397.544h15v-351.966h-65.681l-30.337 55.159v243.722z" fill="#ff6c6c"/><path d="m496.906 397.544h15v-351.966h-65.681l-30.337 55.159v243.722z" fill="#ff3943"/><path d="m443.186 328.758c-1.545 0-3.113.052-4.66.156l-386.425 25.877c-29.216 1.957-52.101 26.426-52.101 55.706 0 30.785 25.046 55.831 55.831 55.831h387.291c37.928 0 68.784-30.856 68.784-68.784 0-37.929-30.827-68.786-68.72-68.786z" fill="#47568c"/><path d="m443.186 328.758c-1.545 0-3.113.052-4.66.156l-182.565 12.226v125.189h187.161c37.928 0 68.784-30.856 68.784-68.784 0-37.93-30.827-68.787-68.72-68.787z" fill="#2c3b73"/><path d="m82.95 426.871c-9.029 0-16.374-7.345-16.374-16.374s7.345-16.374 16.374-16.374 16.374 7.345 16.374 16.374-7.345 16.374-16.374 16.374z" fill="#dcdcff"/><path d="m428.887 413.917c-9.028 0-16.374-7.345-16.374-16.374s7.345-16.374 16.374-16.374 16.374 7.345 16.374 16.374-7.345 16.374-16.374 16.374z" fill="#dcdcff"/><path d="m428.887 413.917c-9.028 0-16.374-7.345-16.374-16.374s7.345-16.374 16.374-16.374 16.374 7.345 16.374 16.374-7.345 16.374-16.374 16.374z" fill="#acacda"/></svg>