<svg id="Capa_1" enable-background="new 0 0 512.054 512.054" height="512" viewBox="0 0 512.054 512.054" width="512" xmlns="http://www.w3.org/2000/svg"><path d="m20.156 103.899h471.742v127.624h-471.742z" fill="#f2f2fc"/><path d="m256.027 103.899h235.871v127.624h-235.871z" fill="#dcdcff"/><path d="m20.156 231.523h471.742v214.035h-471.742z" fill="#25d9f8"/><path d="m256.027 231.523h235.871v214.035h-235.871z" fill="#00c0f1"/><path d="m20.156 31.503h471.742v102.396h-471.742z" fill="#61729b"/><path d="m256.027 31.503h235.871v102.396h-235.871z" fill="#47568c"/><path d="m151.791 15h208.473v135.402h-208.473z" fill="#f2f2fc"/><path d="m256.027 15h104.236v135.401h-104.236z" fill="#dcdcff"/><path d="m375.263 165.402h-238.472v-165.402h238.473v165.402zm-208.472-30h178.473v-105.402h-178.473z" fill="#47568c"/><path d="m375.263 0h-119.236v30h89.236v105.402h-89.236v30h119.236z" fill="#2c3b73"/><path d="m320.044 67.701h-8.802v-17.679h-30v17.679h-50.445v-17.679h-30v17.679h-8.802v30h8.802v17.679h30v-17.679h50.445v17.679h30v-17.679h8.802z" fill="#47568c"/><path d="m256.027 231.523h79.741v199.035h-79.741z" fill="#00c0f1"/><path d="m20.156 216.523v30h141.129v184.035h30v-184.035h49.742v184.035h30v-184.035h49.741v184.035h30v-184.035h141.13v-30z" fill="#47568c"/><path d="m256.027 216.523v214.035h15v-184.035h49.741v184.035h30v-184.035h141.13v-30z" fill="#2c3b73"/><path d="m.045 415.558h511.965v96.496h-511.965z" fill="#61729b"/><path d="m256.027 415.558h255.982v96.496h-255.982z" fill="#47568c"/><path d="m311.242 67.701v-17.679h-30v17.679h-25.215v30h25.215v17.679h30v-17.679h8.802v-30z" fill="#2c3b73"/></svg>