<svg id="Capa_1" enable-background="new 0 0 511.938 511.938" height="512" viewBox="0 0 511.938 511.938" width="512" xmlns="http://www.w3.org/2000/svg"><path d="m94.771 43.061-94.546-43.061 52.856 170.868h83.381l52.856-170.868z" fill="#f2f2fc"/><path d="m189.318 0-94.547 43.061v127.807h41.691z" fill="#dcdcff"/><path d="m504.12 129.47-21.213-21.213-35.244 35.244-28.993-28.993 50.026-50.026-21.213-21.213-50.026 50.026-28.993-28.993 35.243-35.243-21.213-21.214-35.243 35.243-28.861-28.86-21.212 21.212 28.861 28.861-28.993 28.993-39.745-39.744-21.213 21.213 39.744 39.745-28.993 28.992-28.86-28.86-21.213 21.213 28.86 28.86-35.244 35.244 21.213 21.213 35.244-35.244 28.993 28.993-139.016 139.016 21.213 21.213 139.016-139.016 28.993 28.993-35.244 35.244 21.213 21.213 35.244-35.244 28.859 28.859 21.213-21.213-28.859-28.859 28.993-28.993 39.744 39.744 21.213-21.213-39.744-39.743 28.993-28.993 28.859 28.859 21.213-21.213-28.859-28.859zm-156.869-43.956 28.993 28.993-28.993 28.993-28.993-28.993zm-79.199 79.199 28.993-28.993 28.993 28.993-28.993 28.993zm79.199 79.2-28.993-28.993 28.993-28.993 28.993 28.993zm50.206-50.206-28.993-28.993 28.993-28.993 28.993 28.993z" fill="#f2f2fc"/><path d="m504.12 129.47-21.213-21.213-35.244 35.244-28.993-28.993 50.026-50.026-10.607-10.607-310.667 310.666 10.607 10.607 139.016-139.016 28.993 28.993-35.244 35.244 21.213 21.213 35.244-35.244 28.859 28.859 21.213-21.213-28.859-28.859 28.993-28.993 39.744 39.744 21.213-21.213-39.744-39.743 28.993-28.993 28.859 28.859 21.213-21.213-28.859-28.859zm-156.869 114.443-28.993-28.993 28.993-28.993 28.993 28.993zm50.206-50.206-28.993-28.993 28.993-28.993 28.993 28.993z" fill="#dcdcff"/><path d="m332.682 329.371c-41.056 0-79.012-15.346-106.877-43.212-29.89-29.89-45.167-70.696-43.017-114.904 2.124-43.657 21.052-85.458 53.299-117.705 33.995-33.996 79.823-53.494 125.731-53.494 41.056 0 79.012 15.346 106.877 43.212 29.89 29.89 45.167 70.696 43.017 114.904-2.124 43.657-21.052 85.458-53.299 117.705-33.994 33.996-79.822 53.494-125.731 53.494zm29.137-299.315c-38.012 0-76.106 16.295-104.519 44.707-26.966 26.966-42.786 61.752-44.547 97.95-1.733 35.647 10.435 68.403 34.265 92.233 22.199 22.199 52.622 34.425 85.664 34.425 38.012 0 76.106-16.295 104.519-44.707 26.966-26.966 42.786-61.752 44.547-97.95 1.733-35.647-10.435-68.403-34.265-92.233-22.199-22.199-52.622-34.425-85.664-34.425z" fill="#61729b"/><path d="m468.696 43.268-21.213 21.212c23.83 23.83 35.998 56.586 34.265 92.234-1.761 36.198-17.581 70.983-44.547 97.95-28.412 28.412-66.507 44.707-104.519 44.707-33.042 0-63.465-12.226-85.664-34.425l-21.213 21.213c27.865 27.866 65.821 43.212 106.877 43.212 45.908 0 91.736-19.498 125.731-53.494 32.247-32.247 51.175-74.048 53.299-117.705 2.151-44.208-13.126-85.014-43.016-114.904z" fill="#47568c"/><path d="m124.056 319.962-109.959 109.959c-9.075 9.074-14.072 21.139-14.072 33.973 0 12.833 4.997 24.898 14.072 33.972 9.074 9.074 21.139 14.072 33.972 14.072s24.897-4.998 33.972-14.072l109.96-109.959z" fill="#ff6c6c"/><path d="m14.097 497.866c9.074 9.074 21.139 14.072 33.972 14.072s24.897-4.998 33.972-14.072l109.96-109.959-33.972-33.972z" fill="#ff3943"/><path d="m49.142 158.122v28.375c0 25.16 20.469 45.629 45.629 45.629s45.629-20.469 45.629-45.629v-28.375z" fill="#ff6c6c"/><path d="m94.771 158.122v74.004c25.16 0 45.629-20.469 45.629-45.629v-28.375z" fill="#ff3943"/></svg>