<svg id="Capa_1" enable-background="new 0 0 512.025 512.025" height="512" viewBox="0 0 512.025 512.025" width="512" xmlns="http://www.w3.org/2000/svg"><path d="m.123 32.44v479.584l341.92-.088v-479.496z" fill="#f2f2fc"/><path d="m342.043 32.44h-170.96v479.54l170.96-.044z" fill="#dcdcff"/><path d="m134.19 139.678h136.67v30h-136.67z" fill="#fcbf29"/><path d="m171.083 139.678h99.776v30h-99.776z" fill="#ffa918"/><path d="m134.19 202.56h136.67v30h-136.67z" fill="#fcbf29"/><path d="m134.19 265.441h136.67v30h-136.67z" fill="#fcbf29"/><path d="m134.19 328.323h136.67v30h-136.67z" fill="#fcbf29"/><path d="m171.083 328.323h99.776v30h-99.776z" fill="#ffa918"/><path d="m134.19 391.204h133.249v30h-133.249z" fill="#fcbf29"/><path d="m171.083 391.204h96.355v30h-96.355z" fill="#ffa918"/><path d="m396.226 320.889h-30v-46.046c0-27.487 22.362-49.849 49.85-49.849h8.527v30h-8.527c-10.945 0-19.85 8.904-19.85 19.849z" fill="#9cdd05"/><path d="m416.075 224.994c-13.554 0-25.854 5.444-34.85 14.252v81.643h15v-46.046c0-10.945 8.904-19.849 19.85-19.849h8.527v-30z" fill="#6b0"/><path d="m500.04 326.859c-12.18-25.913-32.04-42.5-55.923-46.708-3.805-.67-7.693-1.01-11.559-1.01-18.002 0-35.808 7.216-51.333 20.584-15.524-13.369-33.33-20.584-51.332-20.584-3.865 0-7.754.34-11.559 1.01-23.884 4.208-43.744 20.795-55.923 46.708-11.349 24.145-14.697 53.913-9.429 83.818 4.833 27.439 16.675 52.718 33.342 71.181 17.562 19.454 39.268 30.167 61.118 30.167 3.866 0 7.756-.34 11.562-1.01 7.847-1.382 15.284-4.116 22.221-8.159 6.937 4.042 14.375 6.776 22.222 8.159 3.803.67 7.691 1.01 11.56 1.01h.008c21.85 0 43.553-10.712 61.112-30.164 16.666-18.462 28.507-43.742 33.341-71.183 5.268-29.906 1.92-59.673-9.428-83.819z" fill="#ff3943"/><path d="m500.04 326.859c-12.18-25.913-32.04-42.5-55.923-46.708-3.805-.67-7.693-1.01-11.559-1.01-18.002 0-35.808 7.216-51.333 20.584v203.13c6.937 4.042 14.375 6.776 22.222 8.159 3.803.67 7.691 1.01 11.56 1.01h.008c21.85 0 43.553-10.712 61.112-30.164 16.666-18.462 28.507-43.742 33.341-71.183 5.268-29.905 1.92-59.672-9.428-83.818z" fill="#e31414"/><path d="m66.261 0h209.645v72.484h-209.645z" fill="#61729b"/><path d="m171.083 0h104.822v72.484h-104.822z" fill="#47568c"/><g fill="#fcbf29"><path d="m71.308 139.678h31.44v30h-31.44z"/><path d="m71.308 202.56h31.44v30h-31.44z"/><path d="m71.308 265.441h31.44v30h-31.44z"/><path d="m71.308 328.323h31.44v30h-31.44z"/><path d="m71.308 391.204h31.44v30h-31.44z"/></g><path d="m171.083 202.56h99.776v30h-99.776z" fill="#ffa918"/><path d="m171.083 265.441h99.776v30h-99.776z" fill="#ffa918"/></svg>