<svg id="Capa_1" enable-background="new 0 0 511.918 511.918" height="512" viewBox="0 0 511.918 511.918" width="512" xmlns="http://www.w3.org/2000/svg"><path d="m426.673 171.031c-16.904-19.02-26.214-43.508-26.214-68.954v-102.077h-90.004v77.743c0 30.049-24.447 54.496-54.496 54.496s-54.496-24.447-54.496-54.496v-77.743h-90.004v102.077c0 25.446-9.31 49.935-26.214 68.954l-3.788 4.262v87.704h349.004v-87.704z" fill="#fedb41"/><path d="m430.461 175.293-3.788-4.262c-16.904-19.02-26.214-43.508-26.214-68.954v-102.077h-90.004v77.743c0 30.049-24.447 54.496-54.496 54.496v130.758h174.502z" fill="#fcbf29"/><path d="m428.43 344.939h-344.942l-24.381 166.979h180.653l10.001-41.333h12.396l10.001 41.333h180.653z" fill="#fedb41"/><path d="m428.43 344.939h-172.471v125.646h6.198l10.001 41.333h180.653z" fill="#fcbf29"/><g fill="#ff3943"><path d="m300.455 213.207h30v49.79h-30z"/><path d="m350.458 213.207h30v49.79h-30z"/><path d="m131.46 356.939h30v49.79h-30z"/><path d="m181.463 356.939h30v49.79h-30z"/></g><path d="m81.457 293h349.004v65.942h-349.004z" fill="#ff6c6c"/><path d="m255.959 293h174.502v65.942h-174.502z" fill="#ff3943"/><path d="m300.455 213.207h30v49.79h-30z" fill="#e31414"/><path d="m350.458 213.207h30v49.79h-30z" fill="#e31414"/></svg>