<svg id="Capa_1" enable-background="new 0 0 512.149 512.149" height="512" viewBox="0 0 512.149 512.149" width="512" xmlns="http://www.w3.org/2000/svg"><path d="m134.905 343.903h242.338v30h-242.338z" fill="#61729b"/><path d="m256.102 343.903h121.142v30h-121.142z" fill="#47568c"/><path d="m123.847 48.24h30v51.386h-30z" fill="#dcdcff"/><path d="m358.319 48.24h30v51.386h-30z" fill="#dcdcff"/><path d="m358.319 48.24h30v51.386h-30z" fill="#acacda"/><path d="m430.7 261.488h-91.857l47.769 202.421h91.856z" fill="#dcdcff"/><path d="m430.7 261.488h-91.857l47.769 202.421h91.856z" fill="#acacda"/><path d="m81.45 261.488-47.768 202.421h91.856l47.768-202.421z" fill="#dcdcff"/><path d="m421.158 84.626h-330.167c-50.173 0-90.991 40.819-90.991 90.991v115.87h512.149v-115.87c0-50.172-40.818-90.991-90.991-90.991z" fill="#ff6c6c"/><path d="m512.149 175.617c0-50.173-40.818-90.991-90.991-90.991h-165.056v206.861h256.047z" fill="#ff3943"/><path d="m0 200.455h512.149v30h-512.149z" fill="#ff3943"/><path d="m256.102 200.455h256.047v30h-256.047z" fill="#e31414"/></svg>