<svg id="Capa_1" enable-background="new 0 0 512.097 512.097" height="512" viewBox="0 0 512.097 512.097" width="512" xmlns="http://www.w3.org/2000/svg"><path d="m256.049 0c-70.254 0-127.41 57.156-127.41 127.41s57.156 127.41 127.41 127.41 127.41-57.156 127.41-127.41-57.157-127.41-127.41-127.41z" fill="#ffa918"/><path d="m256.049 0v254.82c70.254 0 127.41-57.156 127.41-127.41s-57.157-127.41-127.41-127.41z" fill="#ff931e"/><path d="m382.571 142.41c.58-4.922.887-9.925.887-15s-.308-10.078-.887-15h-51.18c2.517-23.171 10.893-44.946 24.61-63.921-6.287-7.945-13.497-15.127-21.47-21.379-19.159 24.979-30.531 54.162-33.287 85.301h-30.197v-111.524c-4.922-.58-9.925-.887-15-.887s-10.078.307-15 .887v111.523h-30.187c-2.756-31.141-14.128-60.326-33.289-85.305-7.973 6.252-15.183 13.434-21.47 21.378 13.719 18.976 22.096 40.753 24.613 63.927h-51.188c-.58 4.922-.887 9.925-.887 15s.308 10.078.887 15h51.188c-2.516 23.188-10.894 44.964-24.616 63.925 6.286 7.944 13.496 15.125 21.469 21.377 19.164-24.96 30.538-54.144 33.293-85.302h30.188v111.523c4.922.58 9.925.887 15 .887s10.078-.307 15-.887v-111.523h30.196c2.755 31.155 14.128 60.338 33.292 85.297 7.972-6.252 15.181-13.434 21.467-21.378-13.72-18.96-22.097-40.734-24.613-63.919z" fill="#ff931e"/><path d="m383.459 127.41c0-5.075-.308-10.078-.887-15h-51.18c2.517-23.171 10.893-44.946 24.61-63.921-6.287-7.945-13.497-15.127-21.47-21.379-19.159 24.979-30.531 54.162-33.287 85.301h-30.197v-111.524c-4.922-.58-9.925-.887-15-.887v254.82c5.075 0 10.078-.307 15-.887v-111.523h30.196c2.755 31.155 14.128 60.338 33.292 85.297 7.972-6.252 15.181-13.434 21.467-21.378-13.72-18.96-22.097-40.734-24.613-63.919h51.181c.58-4.921.888-9.925.888-15z" fill="#fc7718"/><path d="m374.181 291.28-9.175 23.545c-5.84 14.988-10.649 30.249-14.465 45.72h-41.483c1.331-6.667 2.855-13.298 4.586-19.878l10.56-40.123-29.012-7.636-10.56 40.123c-2.393 9.094-4.427 18.274-6.116 27.514h-45.678c-1.689-9.24-3.724-18.42-6.117-27.514l-10.56-40.123-29.012 7.636 10.56 40.123c1.732 6.581 3.256 13.211 4.587 19.878h-40.741c-3.816-15.471-8.625-30.732-14.465-45.72l-9.175-23.545-27.953 10.893 9.175 23.545c15.334 39.349 23.108 80.713 23.108 122.944v63.435h30v-42.724h36.615v42.724h30v-42.724h33.634v42.724h30v-42.724h37.356v42.724h30v-63.435c0-42.231 7.774-83.595 23.108-122.944l9.175-23.545zm-202.058 148.093c-.409-16.428-1.91-32.722-4.478-48.828h39.253c1.3 12.049 1.963 24.169 1.963 36.304v12.524zm66.738 0v-12.524c0-12.13-.605-24.247-1.799-36.304h37.232c-1.194 12.057-1.799 24.174-1.799 36.304v12.524zm63.634-12.524c0-12.134.663-24.254 1.963-36.304h39.995c-2.568 16.106-4.07 32.4-4.479 48.828h-37.479z" fill="#f2f2fc"/><path d="m374.181 291.28-9.175 23.545c-5.84 14.988-10.649 30.249-14.465 45.72h-41.483c1.331-6.667 2.855-13.298 4.586-19.878l10.56-40.123-29.012-7.636-10.56 40.123c-2.393 9.094-4.427 18.274-6.116 27.514h-22.469v30h18.245c-1.194 12.057-1.799 24.174-1.799 36.304v12.524h-16.446v30h16.446v42.724h30v-42.724h37.356v42.724h30v-63.435c0-42.231 7.774-83.595 23.108-122.944l9.175-23.545zm-34.207 148.093h-37.479v-12.524c0-12.134.663-24.254 1.963-36.304h39.995c-2.569 16.106-4.07 32.4-4.479 48.828z" fill="#dcdcff"/><path d="m86.734 225.112h338.629v86.614h-338.629z" fill="#00c0f1"/><path d="m256.049 225.112h169.314v86.614h-169.314z" fill="#009ae4"/></svg>