<svg id="Capa_1" enable-background="new 0 0 512.053 512.053" height="512" viewBox="0 0 512.053 512.053" width="512" xmlns="http://www.w3.org/2000/svg"><circle cx="118.365" cy="456.91" fill="#dcdcff" r="41.275"/><path d="m118.365 512.053c-30.406 0-55.143-24.737-55.143-55.143s24.737-55.143 55.143-55.143 55.143 24.737 55.143 55.143-24.737 55.143-55.143 55.143zm0-82.549c-15.112 0-27.407 12.295-27.407 27.407s12.295 27.407 27.407 27.407 27.407-12.295 27.407-27.407-12.295-27.407-27.407-27.407z" fill="#47568c"/><circle cx="393.688" cy="456.91" fill="#dcdcff" r="41.275"/><circle cx="393.688" cy="456.91" fill="#acacda" r="41.275"/><path d="m393.688 512.053c-30.406 0-55.143-24.737-55.143-55.143s24.737-55.143 55.143-55.143 55.143 24.737 55.143 55.143-24.737 55.143-55.143 55.143zm0-82.549c-15.112 0-27.407 12.295-27.407 27.407s12.295 27.407 27.407 27.407 27.407-12.295 27.407-27.407-12.295-27.407-27.407-27.407z" fill="#47568c"/><path d="m393.688 512.053c-30.406 0-55.143-24.737-55.143-55.143s24.737-55.143 55.143-55.143 55.143 24.737 55.143 55.143-24.737 55.143-55.143 55.143zm0-82.549c-15.112 0-27.407 12.295-27.407 27.407s12.295 27.407 27.407 27.407 27.407-12.295 27.407-27.407-12.295-27.407-27.407-27.407z" fill="#2c3b73"/><circle cx="256.027" cy="456.91" fill="#dcdcff" r="41.275"/><path d="m256.027 415.635v82.55c22.795 0 41.275-18.479 41.275-41.275-.001-22.795-18.48-41.275-41.275-41.275z" fill="#acacda"/><path d="m256.027 512.053c-30.406 0-55.143-24.737-55.143-55.143s24.737-55.143 55.143-55.143 55.143 24.737 55.143 55.143-24.737 55.143-55.143 55.143zm0-82.549c-15.112 0-27.407 12.295-27.407 27.407s12.295 27.407 27.407 27.407 27.407-12.295 27.407-27.407-12.295-27.407-27.407-27.407z" fill="#47568c"/><path d="m256.027 401.767v27.737c15.112 0 27.407 12.295 27.407 27.407s-12.295 27.406-27.407 27.406v27.737c30.406 0 55.143-24.737 55.143-55.143 0-30.407-24.737-55.144-55.143-55.144z" fill="#2c3b73"/><path d="m442.343 277.225c-15.579-19.071-37.448-32.279-61.578-37.192l-77.834-15.847v198.581h85.79c42.889 0 77.781-34.893 77.781-77.782 0-24.625-8.58-48.689-24.159-67.76z" fill="#00c0f1"/><path d="m442.343 277.225c-15.579-19.071-37.448-32.279-61.578-37.192l-77.834-15.847v198.581h85.79c42.889 0 77.781-34.893 77.781-77.782 0-24.625-8.58-48.689-24.159-67.76z" fill="#009ae4"/><path d="m275.219 218.544h-71.969v-189.073h-157.699v281.888l14.782.215c25.624.372 49.735 10.55 67.893 28.659 18.154 18.106 28.397 42.183 28.841 67.795l.255 14.74h175.608v-192.474z" fill="#25d9f8"/><path d="m332.931 230.294-57.712-11.75h-19.192v204.223h76.904z" fill="#00c0f1"/><path d="m206.937 0-33.688 29.471v191.821h115.458v-221.292z" fill="#00c0f1"/><path d="m256.027 0h32.681v221.292h-32.681z" fill="#009ae4"/><path d="m135.109 138.553-14.214-26.419 63.575-34.206h104.237v30h-96.678z" fill="#47568c"/><path d="m135.109 207.317-14.214-26.419 63.575-34.205h104.237v30h-96.678z" fill="#47568c"/><path d="m187.063 407.507c-.58-33.444-13.952-64.879-37.651-88.517-23.705-23.641-55.186-36.929-88.643-37.414l-15.218-.221v63.63c0 42.889 34.893 77.782 77.781 77.782h63.995z" fill="#00c0f1"/><g fill="#2c3b73"><path d="m256.027 77.928h32.681v30h-32.681z"/><path d="m256.027 146.693h32.681v30h-32.681z"/></g></svg>