<svg id="Capa_1" enable-background="new 0 0 511.927 511.927" height="512" viewBox="0 0 511.927 511.927" width="512" xmlns="http://www.w3.org/2000/svg"><path d="m168.959 24.629h174.009v472.298h-174.009z" fill="#dcdcff"/><path d="m255.971 24.629h86.997v472.298h-86.997z" fill="#acacda"/><path d="m415.727 84.633h-144.756v-84.633h-30v84.633h-144.771l-49.426 77.483 25.293 16.134 40.58-63.617h286.633l40.58 63.617 25.292-16.134z" fill="#47568c"/><path d="m415.727 84.633h-144.756v-84.633h-15v114.633h143.309l40.58 63.617 25.292-16.134z" fill="#2c3b73"/><path d="m331.625 339.147h-151.323c-28.401 0-51.507 23.105-51.507 51.506v38.498h254.337v-38.498c0-28.4-23.106-51.506-51.507-51.506z" fill="#ff6c6c"/><path d="m383.132 390.654c0-28.401-23.106-51.506-51.507-51.506h-75.654v90.004h127.161z" fill="#ff3943"/><path d="m73.457 481.927h362.01v30h-362.01z" fill="#47568c"/><path d="m255.971 481.927h179.495v30h-179.495z" fill="#2c3b73"/></svg>