<svg id="Capa_1" enable-background="new 0 0 511.845 511.845" height="512" viewBox="0 0 511.845 511.845" width="512" xmlns="http://www.w3.org/2000/svg"><path d="m371.303 225.613c-37.648-.139-73.087 14.435-99.758 41.014-2.266 2.258-4.444 4.579-6.536 6.96-20.378-14.021-44.622-21.608-69.729-21.608-23.198 0-45.763 6.597-65.139 18.657v-117.56h87.604v-78.571c.001-41.082-33.422-74.505-74.504-74.505h-97.833l-3.36 10.381c-38.443 118.774-58.75 311.268-23.18 449.367l1.938 7.521 7.261 2.759c67.445 25.625 144.18 39.616 228.074 41.586 6.563.154 13.151.23 19.784.23 73.155-.001 150.186-9.347 224.039-27.26l11.465-2.78v-114.206c0-78.023-62.86-141.717-140.126-141.985z" fill="#ffcebf"/><path d="m217.74 108.36h-97.838v-47.637h30v17.637h67.838z" fill="#ffc0a0"/><path d="m371.252 24.93-89.684 105.111h47.683v59.883h84.003v-59.883h47.682z" fill="#ff3943"/><path d="m371.252 24.93v164.994h42.002v-59.883h47.682z" fill="#e31414"/><path d="m371.303 225.613c-37.648-.139-73.087 14.435-99.758 41.014-2.266 2.258-4.444 4.579-6.536 6.96v238.183c3.628.047 7.264.075 10.916.075 73.155-.001 150.186-9.347 224.039-27.26l11.465-2.78v-114.207c0-78.023-62.86-141.717-140.126-141.985z" fill="#ffc0a0"/></svg>