<svg id="Capa_1" enable-background="new 0 0 511.987 511.987" height="512" viewBox="0 0 511.987 511.987" width="512" xmlns="http://www.w3.org/2000/svg"><path d="m240.993 15h30v53.987h-30z" fill="#61729b"/><path d="m255.993 15h15v53.987h-15z" fill="#47568c"/><path d="m187.993 0h136v30h-136z" fill="#9cdd05"/><path d="m255.993 0h68v30h-68z" fill="#6b0"/><path d="m399.409 97.579h53.987v30h-53.987z" fill="#61729b" transform="matrix(.707 -.707 .707 .707 45.285 334.485)"/><path d="m399.409 97.579h53.987v30h-53.987z" fill="#47568c" transform="matrix(.707 -.707 .707 .707 45.285 334.485)"/><path d="m430.489 54.2h30v78.583h-30z" fill="#9cdd05" transform="matrix(.707 -.707 .707 .707 64.374 342.395)"/><path d="m430.489 54.2h30v78.583h-30z" fill="#6b0" transform="matrix(.707 -.707 .707 .707 64.374 342.395)"/><path d="m417.921 121.06c-43.252-43.252-100.76-67.073-161.928-67.073s-118.674 23.82-161.927 67.073c-43.252 43.252-67.072 100.759-67.072 161.927s23.82 118.675 67.072 161.927c43.253 43.252 100.76 67.073 161.928 67.073s118.676-23.82 161.928-67.073c43.252-43.252 67.072-100.759 67.072-161.927s-23.821-118.675-67.073-161.927z" fill="#9cdd05"/><path d="m417.921 121.06c-43.252-43.252-100.76-67.073-161.928-67.073v458c61.168 0 118.676-23.82 161.928-67.073 43.252-43.252 67.072-100.759 67.072-161.927s-23.82-118.675-67.072-161.927z" fill="#6b0"/><path d="m255.993 112.715c-93.888 0-170.271 76.384-170.271 170.272s76.384 170.272 170.271 170.272c93.889 0 170.272-76.384 170.272-170.272s-76.383-170.272-170.272-170.272z" fill="#f2f2fc"/><path d="m255.993 112.715v340.544c93.889 0 170.272-76.384 170.272-170.272s-76.383-170.272-170.272-170.272z" fill="#dcdcff"/><path d="m213.044 215.51h30v79.054h-30z" fill="#ff6c6c" transform="matrix(.707 -.707 .707 .707 -113.546 235.948)"/><g fill="#61729b"><path d="m255.993 308.955c-14.318 0-25.968-11.649-25.968-25.968s11.649-25.968 25.968-25.968 25.969 11.649 25.969 25.968-11.649 25.968-25.969 25.968z"/><path d="m240.993 127.715h30v46.808h-30z"/><path d="m240.993 391.451h30v46.808h-30z"/><path d="m364.458 267.987h46.808v30h-46.808z"/><path d="m100.722 267.987h46.808v30h-46.808z"/></g><path d="m364.458 267.987h46.808v30h-46.808z" fill="#47568c"/><path d="m255.993 127.715h15v46.808h-15z" fill="#47568c"/><path d="m255.993 257.019v51.937c14.319 0 25.969-11.649 25.969-25.968s-11.649-25.969-25.969-25.969z" fill="#47568c"/><path d="m255.993 391.451h15v46.808h-15z" fill="#47568c"/></svg>