<svg id="Capa_1" enable-background="new 0 0 512.062 512.062" height="512" viewBox="0 0 512.062 512.062" width="512" xmlns="http://www.w3.org/2000/svg"><path d="m57.938 473.651h30v38.411h-30z" fill="#47568c"/><path d="m396.981 473.651h30v38.411h-30z" fill="#47568c"/><path d="m396.981 473.651h30v38.411h-30z" fill="#2c3b73"/><path d="m449.491 237.728h-30v-148.765l62.466-55.733v-33.23h30v46.668l-62.466 55.733z" fill="#47568c"/><path d="m449.491 237.728h-30v-148.765l62.466-55.733v-33.23h30v46.668l-62.466 55.733z" fill="#2c3b73"/><path d="m107.285 195.526h30v64.75h-30z" fill="#dcdcff"/><path d="m393.518 222.728-72.152 105.228h-83.418c-7.427-21.805-21.048-41.331-39.148-55.854-21.561-17.298-48.734-26.825-76.515-26.825-67.37 0-122.18 54.81-122.18 122.18v48.361c0 40.161 32.673 72.833 72.833 72.833h339.043c40.161 0 72.834-32.673 72.834-72.833v-193.09z" fill="#ff6c6c"/><path d="m393.518 222.728-72.152 105.228h-65.28v160.696h155.896c40.161 0 72.834-32.673 72.834-72.833v-193.09h-91.298z" fill="#ff3943"/><path d="m157.18 133.51-57.401-9.913c-2.603-.449-5.25-.677-7.87-.677-25.259 0-45.808 20.582-45.808 45.88v41.727h148.303 15v-15c0-30.71-21.963-56.792-52.224-62.017z" fill="#47568c"/><path d="m122.285 306.947c-31.125 0-56.446 25.322-56.446 56.446 0 31.125 25.321 56.447 56.446 56.447s56.446-25.322 56.446-56.447c0-31.124-25.321-56.446-56.446-56.446z" fill="#47568c"/><path d="m208.901 433.941h-48.37l-49.864-61.06 23.236-18.975 40.86 50.035h34.138z" fill="#dcdcff"/></svg>