<svg id="Capa_1" enable-background="new 0 0 512.055 512.055" height="512" viewBox="0 0 512.055 512.055" width="512" xmlns="http://www.w3.org/2000/svg"><path d="m512.055 76.882h-35.44l29.302-26.163-19.981-22.377-58.632 52.352 9.99 11.188-9.99 11.189 58.632 52.351 19.981-22.377-29.302-26.163h35.44z" fill="#9cdd05"/><path d="m512.055 76.882h-35.44l29.302-26.163-19.981-22.377-58.632 52.352 9.99 11.188-9.99 11.189 58.632 52.351 19.981-22.377-29.302-26.163h35.44z" fill="#6b0"/><path d="m274.808 161.102v54.882c0 13.16-9.989 24.026-22.783 25.426h-10.878v-87.653h-30v87.653h-10.878c-12.794-1.399-22.783-12.266-22.783-25.426v-69.573h-30v69.573c0 24.183 15.529 44.797 37.136 52.422v243.636h83.051v-243.636c21.606-7.626 37.135-28.239 37.135-52.422v-54.882z" fill="#f2f2fc"/><path d="m274.808 161.102v54.882c0 13.16-9.989 24.026-22.783 25.426h-10.878v-87.653h-15v358.286h41.525v-243.637c21.606-7.626 37.135-28.239 37.135-52.422v-54.882z" fill="#dcdcff"/><path d="m360.568.012c-3.538 0-7.126.207-10.664.615l-299.362 34.544c-28.813 3.326-50.542 27.705-50.542 56.711 0 29.005 21.729 53.385 50.542 56.71l299.362 34.545c3.538.408 7.125.615 10.663.615 50.579 0 91.728-41.213 91.728-91.87s-41.149-91.87-91.727-91.87z" fill="#ffa918"/><g fill="#ff931e"><path d="m360.568.012c-3.538 0-7.126.207-10.664.615l-123.757 14.281v153.948l123.757 14.281c3.538.408 7.125.615 10.663.615 50.579 0 91.728-41.213 91.728-91.87s-41.149-91.87-91.727-91.87z"/><path d="m241.147 76.806v-63.629l-30 3.462v60.167z"/><path d="m325.569 103.484v76.845l24.335 2.808c1.879.217 3.772.373 5.665.475v-80.128z"/><path d="m96.725 91.882v62.04l30 3.461v-65.501z"/></g><path d="m325.569 103.484v76.845l24.335 2.808c1.879.217 3.772.373 5.665.475v-80.128z" fill="#fc7718"/><path d="m241.147 13.177-15 1.731v61.898h15z" fill="#fc7718"/></svg>