<svg id="Capa_1" enable-background="new 0 0 512.103 512.103" height="512" viewBox="0 0 512.103 512.103" width="512" xmlns="http://www.w3.org/2000/svg"><path d="m27.566 153.658-12.37 12.37c-9.724 9.724-15.079 22.652-15.079 36.404 0 13.751 5.355 26.681 15.079 36.404l273.265 273.266h172.041c28.388 0 51.484-23.096 51.484-51.484v-15.11l-192.443.125z" fill="#f2f2fc"/><path d="m192.984 319.075-48.775 48.775 144.252 144.252h172.041c28.388 0 51.484-23.096 51.484-51.484v-15.11l-192.443.125z" fill="#dcdcff"/><path d="m482.214 369.231c-19.199-20.847-45.327-33.61-73.529-35.936l-28.878-2.465-13.259-29.654c-6.987-15.626-9.038-32.783-5.932-49.616s11.146-32.128 23.25-44.231l46.588-46.59-81.412-81.411-56.477 56.476c-2.125 2.125-4.95 3.295-7.956 3.295s-5.831-1.17-7.956-3.295l-60.915-60.915v288.154l97.594 97.595 198.653-.141v-14.989c.001-28.34-10.573-55.429-29.771-76.277z" fill="#ff6c6c"/><g fill="#ff3943"><path d="m408.685 333.296-28.878-2.465-13.259-29.654c-6.987-15.626-9.038-32.783-5.932-49.616s11.146-32.128 23.25-44.231l46.588-46.59-39.567-39.567-175.148 175.147v66.723l97.594 97.595 198.653-.141v-14.989c0-28.34-10.573-55.429-29.772-76.276s-45.328-33.611-73.529-35.936z"/><path d="m303.599 256.159h56.312c.197-1.534.422-3.068.705-4.599 1.659-8.992 4.739-17.539 9.082-25.401h-66.099z"/><path d="m317.505 319.772h57.357l-8.315-18.596c-1.664-3.722-3.04-7.533-4.141-11.404h-44.902v30z"/></g><path d="m16.959 164.264 144.563 144.562v-289.124z" fill="#ff6c6c"/><path d="m227.33 86.479c-2.125-2.124-3.295-4.949-3.295-7.955 0-3.005 1.17-5.831 3.278-7.938l.167-.166c16.083-16.084 16.083-42.254-.001-58.338-7.791-7.791-18.15-12.082-29.169-12.082-11.018 0-21.377 4.291-29.168 12.082l-37.62 37.62v229.124l114.217 114.217v-288.154z" fill="#ff3943"/><path d="m245.739 266.32-63.362 63.362 63.362 63.361z" fill="#e31414"/><path d="m303.599 256.159h56.312c.197-1.534.422-3.068.705-4.599 1.659-8.992 4.739-17.539 9.082-25.401h-66.099z" fill="#e31414"/><path d="m317.505 319.772h57.357l-8.315-18.596c-1.664-3.722-3.04-7.533-4.141-11.404h-44.902v30z" fill="#e31414"/></svg>