<svg id="Capa_1" enable-background="new 0 0 511.888 511.888" height="512" viewBox="0 0 511.888 511.888" width="512" xmlns="http://www.w3.org/2000/svg"><path d="m0 178.781h511.888v308.638h-511.888z" fill="#f2f2fc"/><path d="m256.165 178.781h255.723v308.638h-255.723z" fill="#dcdcff"/><path d="m0 75.82h511.888v132.962h-511.888z" fill="#00c0f1"/><path d="m256.165 75.82h255.723v132.962h-255.723z" fill="#009ae4"/><path d="m249.943 157.171h-7.038c-21.598 0-39.17-17.571-39.17-39.17v-54.362c0-21.599 17.572-39.17 39.17-39.17h26.076c21.599 0 39.17 17.571 39.17 39.17v12.18h-30v-12.18c0-5.057-4.113-9.17-9.17-9.17h-26.076c-5.056 0-9.17 4.113-9.17 9.17v54.362c0 5.057 4.114 9.17 9.17 9.17h7.038z" fill="#47568c"/><path d="m268.982 24.469h-12.817v30h12.817c5.057 0 9.17 4.113 9.17 9.17v12.18h30v-12.18c0-21.599-17.571-39.17-39.17-39.17z" fill="#2c3b73"/><path d="m110.499 157.171h-7.038c-21.598 0-39.17-17.571-39.17-39.17v-54.362c0-21.599 17.572-39.17 39.17-39.17h26.076c21.598 0 39.17 17.571 39.17 39.17v12.18h-30v-12.18c0-5.057-4.114-9.17-9.17-9.17h-26.076c-5.056 0-9.17 4.113-9.17 9.17v54.362c0 5.057 4.114 9.17 9.17 9.17h7.038z" fill="#47568c"/><path d="m389.388 157.171h-7.038c-21.599 0-39.17-17.571-39.17-39.17v-54.362c0-21.599 17.571-39.17 39.17-39.17h26.076c21.599 0 39.17 17.571 39.17 39.17v12.18h-30v-12.18c0-5.057-4.113-9.17-9.17-9.17h-26.076c-5.057 0-9.17 4.113-9.17 9.17v54.362c0 5.057 4.113 9.17 9.17 9.17h7.038z" fill="#47568c"/><path d="m389.388 157.171h-7.038c-21.599 0-39.17-17.571-39.17-39.17v-54.362c0-21.599 17.571-39.17 39.17-39.17h26.076c21.599 0 39.17 17.571 39.17 39.17v12.18h-30v-12.18c0-5.057-4.113-9.17-9.17-9.17h-26.076c-5.057 0-9.17 4.113-9.17 9.17v54.362c0 5.057 4.113 9.17 9.17 9.17h7.038z" fill="#2c3b73"/><path d="m416.975 328.284h-23.557v-30.507h-27.903v-23.147h-30v53.654h-158.701v-53.654h-30v23.147h-27.904v30.507h-23.556v30h23.556v31.853h27.904v23.147h30v-55h158.701v55h30v-23.147h27.903v-31.853h23.557z" fill="#47568c"/><path d="m393.418 328.284v-30.507h-27.903v-23.147h-30v53.654h-79.35v30h79.35v55h30v-23.147h27.903v-31.853h23.557v-30z" fill="#2c3b73"/></svg>