<svg id="Capa_1" enable-background="new 0 0 511.984 511.984" height="512" viewBox="0 0 511.984 511.984" width="512" xmlns="http://www.w3.org/2000/svg"><path d="m0 84.326h511.984v30h-511.984z" fill="#dcdcff"/><path d="m255.969 84.326h256.015v30h-256.015z" fill="#acacda"/><path d="m240.992 383.66h30v95.332h-30z" fill="#47568c"/><path d="m255.969 383.66h15.023v95.332h-15.023z" fill="#2c3b73"/><path d="m303.949 308.66h-95.96c-28.856 0-52.333 23.477-52.333 52.333v37.667h200.626v-37.667c0-28.856-23.476-52.333-52.333-52.333z" fill="#ff6c6c"/><path d="m356.282 360.993c0-28.856-23.477-52.333-52.333-52.333h-47.98v90h100.313z" fill="#ff3943"/><path d="m450.316 240.663v-30h-23.33v-45.003h-30v313.332h30v-118.321h23.33v-30h-23.33v-30.004h23.33v-30h-23.33v-30.004z" fill="#47568c"/><path d="m450.316 240.663v-30h-23.33v-45.003h-30v313.332h30v-118.321h23.33v-30h-23.33v-30.004h23.33v-30h-23.33v-30.004z" fill="#2c3b73"/><path d="m84.998 165.66v45.003h-23.33v30h23.33v30.004h-23.33v30h23.33v30.004h-23.33v30h23.33v118.321h30v-313.332z" fill="#47568c"/><path d="m24.995 17.992h90.003v162.668h-90.003z" fill="#61729b"/><path d="m396.986 17.992h90.003v162.668h-90.003z" fill="#61729b"/><path d="m396.986 17.992h90.003v162.668h-90.003z" fill="#47568c"/><path d="m203.322 463.992h105.294v30h-105.294z" fill="#61729b"/><path d="m255.969 463.992h52.647v30h-52.647z" fill="#47568c"/><path d="m53.998 463.992h92.001v30h-92.001z" fill="#61729b"/><path d="m365.985 463.992h92.001v30h-92.001z" fill="#61729b"/><path d="m365.985 463.992h92.001v30h-92.001z" fill="#47568c"/></svg>