<svg id="Capa_1" enable-background="new 0 0 511.854 511.854" height="512" viewBox="0 0 511.854 511.854" width="512" xmlns="http://www.w3.org/2000/svg"><path d="m7.119 226.853v106.145c0 45.688 37.17 82.858 82.858 82.858h15v-189.003z" fill="#00c0f1"/><path d="m406.877 226.853v189.003h15c45.688 0 82.858-37.17 82.858-82.858v-106.145z" fill="#00c0f1"/><path d="m406.877 226.853v189.003h15c45.688 0 82.858-37.17 82.858-82.858v-106.145z" fill="#009ae4"/><path d="m74.977 185.522h361.9v326.332h-361.9z" fill="#dcdcff"/><path d="m256.013 185.522h180.864v326.332h-180.864z" fill="#acacda"/><path d="m74.977 120.008v76.842c0 41.357 33.646 75.004 75.004 75.004h211.893c41.357 0 75.004-33.646 75.004-75.004v-76.842z" fill="#00c0f1"/><path d="m256.013 120.008v151.846h105.86c41.357 0 75.004-33.646 75.004-75.004v-76.842z" fill="#009ae4"/><path d="m421.877 0h-331.9c-33.1 0-60.027 26.928-60.027 60.027v29.953c0 33.1 26.928 60.027 60.027 60.027h331.9c33.1 0 60.027-26.928 60.027-60.027v-29.953c.001-33.099-26.927-60.027-60.027-60.027z" fill="#61729b"/><path d="m421.877 0h-165.864v150.008h165.864c33.1 0 60.027-26.928 60.027-60.027v-29.954c.001-33.099-26.927-60.027-60.027-60.027z" fill="#47568c"/><path d="m133.26 380.855h245.334v130.999h-245.334z" fill="#00c0f1"/><path d="m256.013 380.855h122.581v130.999h-122.581z" fill="#009ae4"/><path d="m135.923 0v300.523c0 22.057 17.944 40.001 40.002 40.001s40.002-17.944 40.002-40.001v-300.523z" fill="#47568c"/><path d="m295.927 0v300.523c0 22.057 17.944 40.001 40.002 40.001s40.002-17.944 40.002-40.001v-300.523z" fill="#ff3943"/><path d="m295.927 0v300.523c0 22.057 17.944 40.001 40.002 40.001s40.002-17.944 40.002-40.001v-300.523z" fill="#2c3b73"/></svg>