<svg id="Capa_1" enable-background="new 0 0 511.694 511.694" height="512" viewBox="0 0 511.694 511.694" width="512" xmlns="http://www.w3.org/2000/svg"><path d="m125.855 128.479h370.84v349.499h-370.84z" fill="#fedb41"/><path d="m511.694 492.979h-401.93v-379.5h401.931v379.5zm-371.93-30h341.931v-319.5h-341.931z" fill="#ffa918"/><path d="m109.764 18.716c-60.524 0-109.764 49.24-109.764 109.763v254.735h219.528v-254.735c0-60.523-49.24-109.763-109.764-109.763z" fill="#ff931e"/><path d="m109.764 273.451c-60.524 0-109.764 49.24-109.764 109.764s49.24 109.764 109.764 109.764 109.764-49.24 109.764-109.764-49.24-109.764-109.764-109.764z" fill="#fcbf29"/><path d="m109.764 331.422c-28.559 0-51.793 23.234-51.793 51.793s23.234 51.793 51.793 51.793 51.793-23.234 51.793-51.793-23.235-51.793-51.793-51.793z" fill="#ff931e"/><g fill="#fcbf29"><path d="m244.187 178.221h30v40.003h-30z"/><path d="m304.19 178.221h30v40.003h-30z"/><path d="m364.194 178.221h30v40.003h-30z"/><path d="m424.198 178.221h30v40.003h-30z"/><path d="m244.187 248.226h30v40.002h-30z"/><path d="m304.19 248.226h30v40.002h-30z"/><path d="m364.194 248.226h30v40.002h-30z"/><path d="m424.198 248.226h30v40.002h-30z"/><path d="m244.187 318.229h30v40.003h-30z"/><path d="m304.19 318.229h30v40.003h-30z"/><path d="m364.194 318.229h30v40.003h-30z"/><path d="m424.198 318.229h30v40.003h-30z"/><path d="m244.187 388.234h30v40.002h-30z"/><path d="m304.19 388.234h30v40.002h-30z"/><path d="m364.194 388.234h30v40.002h-30z"/><path d="m424.198 388.234h30v40.002h-30z"/><path d="m125.855 128.479h370.84v349.499h-370.84z"/></g><path d="m511.694 492.979h-401.93v-379.5h401.931v379.5zm-371.93-30h341.931v-319.5h-341.931z" fill="#ff931e"/><path d="m244.187 178.221h30v40.003h-30z" fill="#ffa918"/><path d="m304.19 178.221h30v40.003h-30z" fill="#ffa918"/><path d="m364.194 178.221h30v40.003h-30z" fill="#ffa918"/><path d="m424.198 178.221h30v40.003h-30z" fill="#ffa918"/><path d="m244.187 248.226h30v40.002h-30z" fill="#ffa918"/><path d="m304.19 248.226h30v40.002h-30z" fill="#ffa918"/><path d="m364.194 248.226h30v40.002h-30z" fill="#ffa918"/><path d="m424.198 248.226h30v40.002h-30z" fill="#ffa918"/><path d="m244.187 318.229h30v40.003h-30z" fill="#ffa918"/><path d="m304.19 318.229h30v40.003h-30z" fill="#ffa918"/><path d="m364.194 318.229h30v40.003h-30z" fill="#ffa918"/><path d="m424.198 318.229h30v40.003h-30z" fill="#ffa918"/><path d="m244.187 388.234h30v40.002h-30z" fill="#ffa918"/><path d="m304.19 388.234h30v40.002h-30z" fill="#ffa918"/><path d="m364.194 388.234h30v40.002h-30z" fill="#ffa918"/><path d="m424.198 388.234h30v40.002h-30z" fill="#ffa918"/><path d="m219.528 128.479c0-60.523-49.24-109.764-109.764-109.764v364.499h109.764z" fill="#fc7718"/><path d="m109.764 273.451v219.527c60.524 0 109.764-49.24 109.764-109.764s-49.24-109.763-109.764-109.763z" fill="#ffa918"/><path d="m109.764 331.422v103.586c28.559 0 51.793-23.234 51.793-51.793s-23.235-51.793-51.793-51.793z" fill="#fc7718"/></svg>