<svg id="Capa_1" enable-background="new 0 0 511.906 511.906" height="512" viewBox="0 0 511.906 511.906" width="512" xmlns="http://www.w3.org/2000/svg"><path d="m87.438 98.56h196.537v88.284h-196.537z" fill="#61729b"/><path d="m185.706 98.56h98.268v88.284h-98.268z" fill="#47568c"/><path d="m53.097 23.622h265.219v104.938h-265.219z" fill="#47568c"/><path d="m185.706 23.622h132.61v104.938h-132.61z" fill="#2c3b73"/><path d="m285.01 156.844h-198.624c-47.633 0-86.386 38.753-86.386 86.385v35.144h371.396v-35.144c0-47.632-38.753-86.385-86.386-86.385z" fill="#f2f2fc"/><path d="m371.396 243.229c0-47.633-38.753-86.386-86.386-86.386h-99.303v121.529h185.69v-35.143z" fill="#dcdcff"/><path d="m15 263.373h341.396v209.911h-341.396z" fill="#25d9f8"/><path d="m185.706 263.373h170.69v209.911h-170.69z" fill="#00c0f1"/><path d="m371.396 488.284h-371.396v-239.911h371.396zm-341.396-30h311.396v-179.911h-311.396z" fill="#00c0f1"/><path d="m371.396 248.373h-185.69v30h155.69v179.911h-155.69v30h185.69z" fill="#009ae4"/><path d="m201.892 424.578-28.227-10.162 11.506-31.961h-41.631l25.965-72.124 28.226 10.162-11.506 31.962h41.631z" fill="#fedb41"/><path d="m227.856 352.455h-41.631l11.506-31.962-12.025-4.329v102.587l16.186 5.827z" fill="#fcbf29"/><path d="m450.235 488.284c34.005 0 61.671-27.665 61.671-61.671s-27.666-61.671-61.671-61.671h-99.199c-34.005 0-61.671 27.665-61.671 61.671s27.666 61.671 61.671 61.671z" fill="#fedb41"/><path d="m450.235 364.942h-49.599v123.342h49.599c34.005 0 61.671-27.665 61.671-61.671s-27.665-61.671-61.671-61.671z" fill="#fcbf29"/></svg>