<svg id="Capa_1" enable-background="new 0 0 512.002 512.002" height="512" viewBox="0 0 512.002 512.002" width="512" xmlns="http://www.w3.org/2000/svg"><path d="m136.993 373.729h238.016v138.272h-238.016z" fill="#dcdcff"/><path d="m256.009 373.729h119v138.272h-119z" fill="#acacda"/><path d="m378.66 67.584h-306.575v215.829c0 31.903 11.873 62.426 33.431 85.944l31.507 34.372h237.956l31.508-34.372c21.558-23.519 33.431-54.041 33.431-85.944v-154.572c-.001-33.778-27.48-61.257-61.258-61.257z" fill="#ff3943"/><path d="m378.66 67.584h-122.651v336.146h118.97l31.508-34.372c21.558-23.519 33.431-54.041 33.431-85.944v-154.573c-.001-33.778-27.48-61.257-61.258-61.257z" fill="#e31414"/><path d="m317.402 180.973h30v61.797h-30z" fill="#e31414"/><path d="m317.402 180.973h30v61.797h-30z" fill="#c80000"/><path d="m333.557 0h-212.676c-26.906 0-48.796 21.89-48.796 48.796v72.942c0 46.342 37.702 84.043 84.043 84.043h142.181c46.342 0 84.044-37.701 84.044-84.043v-72.942c0-26.906-21.89-48.796-48.796-48.796z" fill="#ff6c6c"/><path d="m333.557 0h-77.548v205.781h42.3c46.342 0 84.044-37.701 84.044-84.043v-72.942c0-26.906-21.89-48.796-48.796-48.796z" fill="#ff3943"/><path d="m302.253 437.867h72.756v30h-72.756z" fill="#47568c"/><path d="m302.253 437.867h72.756v30h-72.756z" fill="#2c3b73"/></svg>