<svg id="Capa_1" enable-background="new 0 0 511.962 511.962" height="512" viewBox="0 0 511.962 511.962" width="512" xmlns="http://www.w3.org/2000/svg"><path d="m326.291 334.34 13.869 177.543h153.307l13.869-177.543z" fill="#ff931e"/><path d="m507.336 334.34h-90.523v177.543h76.654z" fill="#fc7718"/><path d="m163.828.079h110.478v82.979h-110.478z" fill="#fcbf29"/><path d="m163.828.079h110.478v82.979h-110.478z" fill="#ffa918"/><path d="m0 53.057h294.869v131.881h-294.869z" fill="#ff931e"/><path d="m147.435 53.057h147.435v131.881h-147.435z" fill="#fc7718"/><path d="m0 380.002h294.869v131.881h-294.869z" fill="#ff931e"/><path d="m147.435 380.002h147.435v131.881h-147.435z" fill="#fc7718"/><path d="m0 154.938h294.869v255.064h-294.869z" fill="#fcbf29"/><path d="m147.435 154.938h147.435v255.064h-147.435z" fill="#ffa918"/><path d="m147.435 221.638c-33.543 0-60.832 27.289-60.832 60.832s27.289 60.832 60.832 60.832 60.832-27.289 60.832-60.832-27.289-60.832-60.832-60.832z" fill="#ff931e"/><path d="m321.665 275.115 6.97 89.225h176.357l6.97-89.225z" fill="#f2f2fc"/><path d="m511.962 275.115h-95.149v89.225h88.179z" fill="#dcdcff"/><path d="m147.435 221.638v121.664c33.543 0 60.832-27.289 60.832-60.832s-27.289-60.832-60.832-60.832z" fill="#fc7718"/></svg>