<svg id="Capa_1" enable-background="new 0 0 512.021 512.021" height="512" viewBox="0 0 512.021 512.021" width="512" xmlns="http://www.w3.org/2000/svg"><path d="m402.679 0h-293.338c-53.104 0-96.308 43.203-96.308 96.308v219.197l36.454 196.516h413.047l36.454-196.516v-219.197c0-53.105-43.204-96.308-96.309-96.308z" fill="#ffcebf"/><g fill="#ffc0a0"><path d="m402.679 0h-146.669v512.021h206.523l36.454-196.516v-219.197c.001-53.105-43.203-96.308-96.308-96.308z"/><path d="m120.817 220.212h66.57v-30h-66.57c-14.18 0-26.303-10.598-28.199-24.65l-5.487-40.666-29.73 4.012 5.487 40.666c1.726 12.79 7.581 24.181 16.095 32.909l20.678 208.887v100.65h30v-102.131l-18.864-190.559c3.265.573 6.612.882 10.02.882z"/><path d="m424.89 124.896-5.487 40.666c-1.896 14.053-14.02 24.65-28.199 24.65h-66.57v30h66.57c3.352 0 6.645-.301 9.859-.855l-18.631 189.807-.072.731v102.126h30v-100.658l20.486-208.69c8.617-8.752 14.549-20.215 16.288-33.1l5.487-40.666z"/><path d="m322.495 377.416 25.576-38.994-25.086-16.453-16.692 25.447h-35.283v-51.783h-30v51.783h-35.272l-16.692-25.447-25.086 16.453 25.577 38.994h51.473v49.251h-24.706l-16.691-25.447-25.086 16.453 25.576 38.994h40.907v55.354h30v-55.354h40.918l25.575-38.994-25.086-16.453-16.69 25.447h-24.717v-49.251z"/><path d="m358.841 131.983h30.002v30h-30.002z"/><path d="m122.986 131.983h30.002v30h-30.002z"/></g><path d="m424.89 124.896-5.487 40.666c-1.896 14.053-14.02 24.65-28.199 24.65h-66.57v30h66.57c3.352 0 6.645-.301 9.859-.855l-18.631 189.807-.072.731v102.126h30v-100.658l20.486-208.69c8.617-8.752 14.549-20.215 16.288-33.1l5.487-40.666z" fill="#ffa489"/><path d="m358.841 131.983h30.002v30h-30.002z" fill="#ffa489"/><path d="m295.727 426.667h-24.717v-49.251h51.485l25.576-38.994-25.086-16.453-16.692 25.447h-35.283v-51.783h-15v216.388h15v-55.354h40.918l25.575-38.994-25.086-16.453z" fill="#ffa489"/></svg>