<svg id="Capa_1" enable-background="new 0 0 511.958 511.958" height="512" viewBox="0 0 511.958 511.958" width="512" xmlns="http://www.w3.org/2000/svg"><path d="m389.826 55.217v-40.217h-30v40.217l-75.866 61.119 18.82 23.361 72.046-58.041 72.044 58.041 18.821-23.361z" fill="#f2f2fc"/><path d="m389.826 55.217v-40.217h-15v66.656l72.044 58.041 18.821-23.361z" fill="#dcdcff"/><path d="m278.37 332.124h192.911v117.856h-192.911z" fill="#ff6c6c"/><path d="m374.826 332.124h96.455v117.856h-96.455z" fill="#ff3943"/><path d="m278.37 113.016h192.911v117.856h-192.911z" fill="#ff6c6c"/><path d="m374.826 113.016h96.455v117.856h-96.455z" fill="#ff3943"/><path d="m278.37 200.872h192.911v161.252h-192.911z" fill="#f2f2fc"/><path d="m374.826 200.872h96.455v161.252h-96.455z" fill="#dcdcff"/><path d="m150.989 0h330.293v30h-330.293z" fill="#61729b"/><path d="m374.826 0h106.457v30h-106.457z" fill="#47568c"/><path d="m70.364 0h95.625v496.984h-95.625z" fill="#47568c"/><path d="m118.177 0h47.813v496.983h-47.813z" fill="#2c3b73"/><path d="m30.675 481.958h175.002v30h-175.002z" fill="#61729b"/><path d="m118.177 481.958h87.501v30h-87.501z" fill="#47568c"/></svg>