<svg id="Capa_1" enable-background="new 0 0 512.01 512.01" height="512" viewBox="0 0 512.01 512.01" width="512" xmlns="http://www.w3.org/2000/svg"><path d="m.052 35.003h87.003v158.664h-87.003z" fill="#47568c"/><path d="m325.721 35.003h87.003v158.664h-87.003z" fill="#47568c"/><path d="m325.721 35.003h87.003v158.664h-87.003z" fill="#2c3b73"/><path d="m115.059 69.333h182.658v90.004h-182.658z" fill="#dcdcff"/><path d="m206.388 69.333h91.329v90.004h-91.329z" fill="#acacda"/><path d="m57.055 0h88.004v228.67h-88.004z" fill="#00c0f1"/><path d="m267.718 0h88.004v228.67h-88.004z" fill="#00c0f1"/><path d="m267.718 0h88.004v228.67h-88.004z" fill="#009ae4"/><path d="m99.285 318.343h87.003v158.664h-87.003z" fill="#47568c"/><path d="m424.955 318.343h87.003v158.664h-87.003z" fill="#47568c"/><path d="m424.955 318.343h87.003v158.664h-87.003z" fill="#2c3b73"/><path d="m214.293 352.673h182.658v90.004h-182.658z" fill="#dcdcff"/><path d="m305.622 352.673h91.329v90.004h-91.329z" fill="#acacda"/><path d="m156.289 283.34h88.004v228.67h-88.004z" fill="#00c0f1"/><path d="m366.951 283.34h88.004v228.67h-88.004z" fill="#00c0f1"/><path d="m366.951 283.34h88.004v228.67h-88.004z" fill="#009ae4"/></svg>