<svg id="Capa_1" enable-background="new 0 0 512.065 512.065" height="512" viewBox="0 0 512.065 512.065" width="512" xmlns="http://www.w3.org/2000/svg"><path d="m367.002 286.035h30v89.693h-30z" fill="#61729b"/><path d="m367.002 286.035h30v89.693h-30z" fill="#47568c"/><path d="m478.002 211.031h-111v90.004h111l-22.501-45.002z" fill="#ff6c6c"/><path d="m455.501 256.033 22.501-45.002h-55.5v90.004h55.5z" fill="#ff3943"/><path d="m255.913 136.338h256.095v-121.219h-256.095c-133.052 0-240.913 107.861-240.913 240.913 0 133.053 107.861 240.913 240.913 240.913h256.096v-121.217h-256.096c-66.106 0-119.695-53.589-119.695-119.695.001-66.106 53.59-119.695 119.695-119.695z" fill="#fcbf29"/><path d="m15 256.033c0 133.053 107.861 240.913 240.913 240.913h256.096v-121.218h-256.096c-66.106 0-119.695-53.589-119.695-119.695z" fill="#ffa918"/><path d="m90.609 256.033c0-91.149 74.155-165.305 165.304-165.305h256.152v-30h-256.151c-107.691 0-195.304 87.613-195.304 195.305s87.613 195.305 195.304 195.305h256.095v-30h-256.095c-91.149-.001-165.305-74.156-165.305-165.305z" fill="#ffa918"/><path d="m255.914 451.337h256.095v-30h-256.095c-91.149 0-165.304-74.155-165.304-165.305h-30c-.001 107.692 87.613 195.305 195.304 195.305z" fill="#ff931e"/><path d="m255.914 360.728c-57.729 0-104.695-46.966-104.695-104.695s46.966-104.695 104.695-104.695h256.095v-30h-256.095c-74.271 0-134.695 60.424-134.695 134.695s60.424 134.695 134.695 134.695h256.095v-30z" fill="#ffa918"/><path d="m255.914 390.728h256.095v-30h-256.095c-57.729 0-104.695-46.966-104.695-104.695h-30c0 74.271 60.424 134.695 134.695 134.695z" fill="#ff931e"/><path d="m96.168 415.778c-42.669-42.669-66.168-99.402-66.168-159.745s23.499-117.076 66.168-159.745c42.669-42.67 99.401-66.169 159.745-66.169h256.096v-30h-256.096c-68.357 0-132.622 26.62-180.958 74.956-48.335 48.336-74.955 112.6-74.955 180.958s26.62 132.622 74.955 180.958c48.336 48.336 112.601 74.956 180.958 74.956h256.096v-30h-256.096c-60.344 0-117.075-23.499-159.745-66.169z" fill="#ffa918"/><path d="m74.955 436.991c48.336 48.336 112.601 74.956 180.958 74.956h256.096v-30h-256.096c-60.344 0-117.075-23.499-159.745-66.169-42.669-42.669-66.168-99.402-66.168-159.745h-30c0 68.357 26.62 132.622 74.955 180.958z" fill="#ff931e"/><path d="m397.005 360.728h29.999v151.219h-29.999z" fill="#f2f2fc"/><path d="m397.005 360.728h29.999v151.219h-29.999z" fill="#dcdcff"/></svg>