<svg id="Capa_1" enable-background="new 0 0 511.935 511.935" height="512" viewBox="0 0 511.935 511.935" width="512" xmlns="http://www.w3.org/2000/svg"><path d="m444.894 201.057c-25.521-19.959-40.158-49.989-40.158-82.39v-118.667h-89.835v103.027c0 32.495-26.438 58.933-58.934 58.933s-58.934-26.438-58.934-58.933v-103.027h-89.835v118.667c0 32.4-14.638 62.431-40.158 82.39l-5.76 4.504v306.374h389.373v-306.374z" fill="#00c0f1"/><path d="m450.654 205.561-5.76-4.504c-25.521-19.959-40.158-49.989-40.158-82.39v-118.667h-89.835v103.027c0 32.495-26.438 58.933-58.934 58.933v349.975h194.687z" fill="#009ae4"/><path d="m152.978 258.537h205.979v161.917h-205.979z" fill="#f2f2fc"/><path d="m255.967 258.537h102.989v161.917h-102.989z" fill="#dcdcff"/></svg>