<svg id="Capa_1" enable-background="new 0 0 511.969 511.969" height="512" viewBox="0 0 511.969 511.969" width="512" xmlns="http://www.w3.org/2000/svg"><path d="m405.718 0h-174.843c-54.211 0-98.315 44.104-98.315 98.315v81.653h84.812v-78.368c0-9.257 7.531-16.788 16.788-16.788h168.274c9.257 0 16.789 7.531 16.789 16.788v410.369h84.811v-413.654c-.001-54.211-44.105-98.315-98.316-98.315z" fill="#dcdcff"/><path d="m405.718 0h-174.843c-20.755 0-40.025 6.471-55.909 17.493v162.476h42.406v-78.369c0-9.257 7.531-16.788 16.788-16.788h168.274c9.257 0 16.789 7.531 16.789 16.788v410.369h84.811v-413.654c-.001-54.211-44.105-98.315-98.316-98.315z" fill="#acacda"/><path d="m226.4 149.969h-102.87c-25.245 0-45.782 20.538-45.782 45.782v44.991h194.435v-44.991c0-25.244-20.538-45.782-45.783-45.782z" fill="#00c0f1"/><path d="m272.183 195.751c0-25.244-20.538-45.782-45.782-45.782h-51.435v90.773h97.217z" fill="#009ae4"/><path d="m7.936 210.742h334.059v95.773h-334.059z" fill="#47568c"/><path d="m174.965 210.742h167.029v95.773h-167.029z" fill="#2c3b73"/><g fill="#25d9f8"><path d="m159.964 337.928h30.002v30h-30.002z"/><path d="m219.968 337.928h30.002v30h-30.002z"/><path d="m99.96 337.928h30.002v30h-30.002z"/><path d="m129.962 397.932h30.002v30h-30.002z"/><path d="m189.966 397.932h30.002v30h-30.002z"/><path d="m249.97 397.932h30.002v30h-30.002z"/><path d="m69.959 397.932h30.001v30h-30.001z"/><path d="m99.96 457.936h30.002v30h-30.002z"/><path d="m159.964 457.936h30.002v30h-30.002z"/><path d="m219.968 457.936h30.002v30h-30.002z"/><path d="m279.972 457.936h30.001v30h-30.001z"/></g><path d="m279.972 457.936h30.001v30h-30.001z" fill="#00c0f1"/><path d="m39.957 457.936h30.002v30h-30.002z" fill="#25d9f8"/><path d="m219.968 337.928h30.002v30h-30.002z" fill="#00c0f1"/><path d="m189.966 397.932h30.002v30h-30.002z" fill="#00c0f1"/><path d="m249.97 397.932h30.002v30h-30.002z" fill="#00c0f1"/><path d="m219.968 457.936h30.002v30h-30.002z" fill="#00c0f1"/><path d="m174.965 337.928h15.001v30h-15.001z" fill="#00c0f1"/><path d="m174.965 457.936h15.001v30h-15.001z" fill="#00c0f1"/></svg>