<svg id="Capa_1" enable-background="new 0 0 511.864 511.864" height="512" viewBox="0 0 511.864 511.864" width="512" xmlns="http://www.w3.org/2000/svg"><path d="m410.976 505.341h-151.928c-24.845 0-45.057-20.212-45.057-45.057s20.212-45.058 45.057-45.058h151.927c24.316 0 44.098-19.782 44.098-44.099v-100.948h30v161.063c.001 40.859-33.24 74.099-74.097 74.099zm-151.928-60.114c-8.303 0-15.057 6.755-15.057 15.057 0 8.303 6.754 15.058 15.057 15.058h151.927c24.316 0 44.098-19.782 44.098-44.099v-.601c-12.33 9.161-27.592 14.585-44.098 14.585z" fill="#dcdcff"/><path d="m455.074 270.179v100.949c0 24.316-19.782 44.099-44.098 44.099h-92.752v30h92.752c16.506 0 31.768-5.424 44.098-14.585v.601c0 24.316-19.782 44.099-44.098 44.099h-92.752v30h92.752c40.858 0 74.098-33.24 74.098-74.099v-161.064z" fill="#acacda"/><path d="m470.91 203.271h-42.626v81.908h42.626c22.582 0 40.954-18.372 40.954-40.954s-18.372-40.954-40.954-40.954z" fill="#47568c"/><path d="m470.91 203.271h-42.626v81.908h42.626c22.582 0 40.954-18.372 40.954-40.954s-18.372-40.954-40.954-40.954z" fill="#2c3b73"/><path d="m316.837 101.49h-105.448v15c0 8.303-6.754 15.058-15.057 15.058h-.498c-8.303 0-15.057-6.755-15.057-15.058v-15h-180.777v128.368l111.485 18.215c33.727 5.511 63.113 27.604 78.61 59.098 11.598 23.573 29.469 43.494 51.68 57.607 22.838 14.511 49.273 22.182 76.448 22.182 38.219 0 74.125-14.909 101.104-41.982 26.978-27.07 41.762-63.031 41.629-101.256-.27-78.428-64.922-142.232-144.119-142.232z" fill="#ff6c6c"/><path d="m318.223 101.507v285.452c38.219 0 74.125-14.909 101.104-41.982 26.978-27.07 41.762-63.031 41.629-101.256-.269-77.968-64.17-141.473-142.733-142.214z" fill="#ff3943"/><path d="m318.223 164.44c-43.994 0-79.785 35.791-79.785 79.785 0 43.993 35.791 79.784 79.785 79.784s79.785-35.791 79.785-79.784c0-43.994-35.791-79.785-79.785-79.785z" fill="#47568c"/><path d="" fill="none" stroke="#000" stroke-miterlimit="10" stroke-width="30"/><g fill="#dcdcff"><path d="m181.332 6.523h30v53.86h-30z"/><path d="m228.416 33.511h54.571v30h-54.571z" transform="matrix(.597 -.802 .802 .597 64.143 224.698)"/><path d="m121.961 21.226h30v54.571h-30z" transform="matrix(.802 -.597 .597 .802 -1.878 91.352)"/></g><path d="" fill="none" stroke="#000" stroke-miterlimit="10" stroke-width="30"/><path d="m228.416 33.511h54.571v30h-54.571z" fill="#acacda" transform="matrix(.597 -.802 .802 .597 64.143 224.698)"/><path d="m318.223 164.44v159.569c43.994 0 79.785-35.791 79.785-79.784 0-43.994-35.791-79.785-79.785-79.785z" fill="#2c3b73"/><path d="m196.332 6.523h15v53.86h-15z" fill="#acacda"/></svg>