<svg id="Capa_1" enable-background="new 0 0 511.887 511.887" height="512" viewBox="0 0 511.887 511.887" width="512" xmlns="http://www.w3.org/2000/svg"><path d="m135.712 90.301c-3.219 11.077-4.951 22.78-4.951 34.882v61.817c0 69.026 56.157 125.183 125.183 125.183s125.183-56.156 125.183-125.183v-61.817c0-12.102-1.732-23.805-4.951-34.882z" fill="#ffcebf"/><path d="m376.175 90.301h-120.231v221.882c69.026 0 125.183-56.156 125.183-125.183v-61.817c-.001-12.102-1.733-23.805-4.952-34.882z" fill="#ffc0a0"/><path d="m255.944 0c-67.39 0-122.504 53.529-125.079 120.301h250.157c-2.574-66.772-57.688-120.301-125.078-120.301z" fill="#61729b"/><path d="m255.944 0v120.301h125.079c-2.575-66.772-57.689-120.301-125.079-120.301z" fill="#47568c"/><path d="m361.194 312.185h-210.5c-49.708 0-90.149 40.44-90.149 90.148v109.553h390.797v-109.553c0-49.708-40.44-90.148-90.148-90.148z" fill="#ffcebf"/><g fill="#ffc0a0"><path d="m451.342 402.333c0-49.708-40.44-90.148-90.148-90.148h-105.25v199.701h195.398z"/><path d="m120.921 428.922h30v82.965h-30z"/><path d="m361.096 428.922h30v82.965h-30z"/></g><path d="m229.466 165.532h52.955v30h-52.955z" fill="#61729b"/><path d="m255.944 165.532h26.478v30h-26.478z" fill="#47568c"/><path d="m381.126 140.455h-73.628c-22.099 0-40.077 17.979-40.077 40.077s17.979 40.077 40.077 40.077h69.04c2.986-10.7 4.588-21.97 4.588-33.609z" fill="#00c0f1"/><path d="m381.126 140.455h-73.628c-22.099 0-40.077 17.979-40.077 40.077s17.979 40.077 40.077 40.077h69.04c2.986-10.7 4.588-21.97 4.588-33.609z" fill="#009ae4"/><path d="m244.466 180.532c0-22.099-17.979-40.077-40.077-40.077h-73.628v46.545c0 11.639 1.603 22.91 4.588 33.609h69.04c22.099 0 40.077-17.978 40.077-40.077z" fill="#00c0f1"/><path d="m179.024 455.404h30.092v30h-30.092z" fill="#ffc0a0"/><path d="m302.901 455.404h30.093v30h-30.093z" fill="#ffc0a0"/><path d="m361.096 428.922h30v82.965h-30z" fill="#ffa489"/><path d="m302.901 455.404h30.093v30h-30.093z" fill="#ffa489"/></svg>