<svg id="Capa_1" enable-background="new 0 0 512.138 512.138" height="512" viewBox="0 0 512.138 512.138" width="512" xmlns="http://www.w3.org/2000/svg"><path d="m146.189 237.832c-30.266 0-54.888 24.623-54.888 54.889v26.608h37.096c30.266 0 54.888-24.622 54.888-54.888v-26.609z" fill="#9cdd05"/><path d="m146.189 237.832c-11.018 0-21.28 3.275-29.887 8.886v72.611h12.095c30.266 0 54.888-24.622 54.888-54.888v-26.609z" fill="#6b0"/><path d="m199.919 0h235.628v73.337h-235.628z" fill="#47568c"/><path d="m317.725 0h117.823v73.337h-117.823z" fill="#2c3b73"/><path d="m442.654 53.338h-5.781-16.325-205.629-16.325-45.433v30h47.976l24.213 285.631h184.766l24.214-285.631h8.324c16.302 0 29.564 13.262 29.564 29.563v121.061h30v-121.061c0-32.843-26.72-59.563-59.564-59.563z" fill="#f2f2fc"/><path d="m442.654 53.338h-5.781-16.325-102.823v315.631h92.391l24.214-285.631h8.324c16.302 0 29.564 13.262 29.564 29.563v121.061h30v-121.061c0-32.843-26.72-59.563-59.564-59.563z" fill="#dcdcff"/><g fill="#61729b"><path d="m276.678 168.781h-68.298l2.543 30h65.755z"/><path d="m276.678 223.524h-63.657l2.543 30h61.114z"/><path d="m276.678 114.037h-72.938l2.543 30h70.395z"/><path d="m276.678 278.269h-59.017l2.544 30h56.473z"/></g><path d="m411.811 348.969h-188.156l-30.052 46.815v116.354h248.261v-116.354z" fill="#47568c"/><path d="m441.864 395.784-30.053-46.815h-94.086v163.169h124.139z" fill="#2c3b73"/><path d="m301.933 422.132h31.583v30h-31.583z" fill="#dcdcff"/><path d="m249.295 422.132h31.583v30h-31.583z" fill="#dcdcff"/><path d="m354.572 422.132h31.583v30h-31.583z" fill="#dcdcff"/><path d="m116.302 299.33c-58.66 0-106.383 47.723-106.383 106.383 0 58.659 47.723 106.382 106.383 106.382 58.659 0 106.382-47.723 106.382-106.382 0-58.66-47.723-106.383-106.382-106.383z" fill="#ff931e"/><path d="m116.302 299.33v212.765c58.659 0 106.382-47.723 106.382-106.382 0-58.66-47.723-106.383-106.382-106.383z" fill="#fc7718"/><path d="m354.572 422.132h31.583v30h-31.583z" fill="#acacda"/><path d="m317.725 422.132h15.792v30h-15.792z" fill="#acacda"/></svg>