<svg id="Capa_1" enable-background="new 0 0 512.085 512.085" height="512" viewBox="0 0 512.085 512.085" width="512" xmlns="http://www.w3.org/2000/svg"><path d="m208.449 0h95.188v81.507h-95.188z" fill="#61729b"/><path d="m256.042 0h47.594v81.507h-47.594z" fill="#47568c"/><path d="m143.035 430.708h226.015v81.377h-226.015z" fill="#25d9f8"/><path d="m256.042 430.708h113.007v81.377h-113.007z" fill="#00c0f1"/><path d="m342.72 222.592c-12.964-11.444-14.84-31.129-4.271-44.816 8.461-10.959 13.121-24.618 13.121-38.462v-24.874c0-34.702-28.231-62.934-62.933-62.934h-65.188c-34.702 0-62.933 28.231-62.933 62.934v24.873c0 13.844 4.66 27.503 13.121 38.462 10.568 13.688 8.691 33.373-4.272 44.816-16.732 14.772-26.329 36.045-26.329 58.364v28.795h226.014v-28.795c0-22.318-9.597-43.591-26.33-58.363z" fill="#25d9f8"/><path d="m369.05 280.956c0-22.319-9.597-43.592-26.33-58.364-12.964-11.444-14.84-31.129-4.271-44.816 8.461-10.959 13.121-24.618 13.121-38.462v-24.874c0-34.702-28.231-62.934-62.933-62.934h-32.594v258.244h113.007z" fill="#00c0f1"/><path d="m143.035 282.751h226.015v177.957h-226.015z" fill="#f2f2fc"/><path d="m256.042 282.751h113.007v177.957h-113.007z" fill="#dcdcff"/><path d="m266.267 333.885-10.225-9.525-10.225 9.525c-7.822 7.288-26.016 26.016-26.016 42.494 0 19.983 16.257 36.241 36.241 36.241s36.241-16.258 36.241-36.241c0-16.479-18.194-35.206-26.016-42.494z" fill="#00c0f1"/><path d="m266.267 333.885-10.225-9.525v88.261c19.983 0 36.241-16.258 36.241-36.241 0-16.48-18.194-35.207-26.016-42.495z" fill="#009ae4"/></svg>