<svg id="Capa_1" enable-background="new 0 0 512.022 512.022" height="512" viewBox="0 0 512.022 512.022" width="512" xmlns="http://www.w3.org/2000/svg"><path d="m62.581 65.114h386.82v123.142h-386.82z" fill="#dcdcff"/><path d="m256.019 65.114h193.382v123.142h-193.382z" fill="#acacda"/><path d="m419.401.022h92.621v253.422h-92.621z" fill="#47568c"/><path d="m419.401.022h92.621v253.422h-92.621z" fill="#2c3b73"/><path d="m0 .022h92.581v253.422h-92.581z" fill="#47568c"/><path d="m395.398 219.654v-140.483c0-21.99-17.891-39.881-39.881-39.881-9.402 0-18.056 3.271-24.881 8.734-6.825-5.463-15.479-8.734-24.881-8.734s-18.056 3.271-24.881 8.734c-6.825-5.463-15.479-8.734-24.881-8.734s-18.056 3.271-24.881 8.734c-6.825-5.463-15.479-8.734-24.881-8.734-21.991 0-39.881 17.891-39.881 39.881v109.084h-49.763v18.889c0 35.145 24.942 64.572 58.057 71.509v42.243c0 13.767-1.953 27.447-5.805 40.664l-17.194 58.997c-4.647 15.944-7.003 32.45-7.003 49.058v42.385h235.214v-42.386c0-16.607-2.356-33.113-7.003-49.059l-17.194-58.996c-3.852-13.217-5.805-26.897-5.805-40.664v-42.575c26.151-6.691 45.544-30.456 45.544-58.666z" fill="#ffcebf"/><path d="m395.398 219.654v-140.483c0-21.99-17.891-39.881-39.881-39.881-9.402 0-18.056 3.271-24.881 8.734-6.825-5.463-15.479-8.734-24.881-8.734s-18.056 3.271-24.881 8.734c-6.818-5.458-15.462-8.727-24.854-8.734v472.71h123.834v-42.386c0-16.607-2.356-33.113-7.003-49.059l-17.194-58.996c-3.852-13.217-5.805-26.897-5.805-40.664v-42.575c26.153-6.691 45.546-30.456 45.546-58.666z" fill="#ffc0a0"/></svg>