<svg id="Capa_1" enable-background="new 0 0 512.323 512.323" height="512" viewBox="0 0 512.323 512.323" width="512" xmlns="http://www.w3.org/2000/svg"><path d="m43.402 217.624h30v77.698h-30z" fill="#dcdcff" transform="matrix(.9 -.435 .435 .9 -105.774 50.96)"/><path d="m175.836 19.507h336.487v473.309h-336.487z" fill="#ff931e"/><path d="m344.079 19.507h168.243v473.309h-168.243z" fill="#fc7718"/><path d="m209.147 276.565c-8.632-9.325-20.743-14.7-33.756-14.7-2.368 0-4.714.179-7.026.534-8.256-7.003-18.843-10.991-29.845-10.991s-21.589 3.988-29.846 10.991c-2.312-.355-4.658-.534-7.026-.534-13.014 0-25.124 5.375-33.756 14.7-23.217 2.358-41.394 22.021-41.394 45.85 0 5.438.932 10.74 2.77 15.758l3.604 9.842h211.284l3.61-9.828c1.841-5.012 2.774-10.317 2.774-15.771 0-23.831-18.176-43.493-41.393-45.851z" fill="#fedb41"/><path d="m209.147 276.565c-8.632-9.325-20.743-14.7-33.756-14.7-2.368 0-4.714.179-7.026.534-8.256-7.003-18.843-10.991-29.845-10.991v96.606h105.637l3.61-9.828c1.841-5.012 2.774-10.317 2.774-15.771-.001-23.83-18.177-43.492-41.394-45.85z" fill="#fcbf29"/><path d="m0 318.014v65.071c0 60.506 49.225 109.73 109.73 109.73h57.578c60.505 0 109.73-49.225 109.73-109.73v-65.071z" fill="#9cdd05"/><path d="m271.901 376.479h144.356v30h-144.356z" fill="#fedb41"/><path d="m138.52 318.014v174.802h28.789c60.505 0 109.73-49.225 109.73-109.73v-65.071h-138.519z" fill="#6b0"/><path d="m371.014 204.81c28.156 0 51.063-22.906 51.063-51.063v-26.605h-41.935c-7.508 0-14.636 1.642-21.063 4.565v-22.897h-30v22.897c-6.427-2.923-13.554-4.565-21.063-4.565h-41.935v26.605c0 28.156 22.906 51.063 51.063 51.063h11.935v14.568c-6.427-2.923-13.554-4.565-21.063-4.565h-41.935v26.605c0 28.156 22.906 51.063 51.063 51.063h11.935v34.996h30v-34.996h11.935c28.156 0 51.063-22.906 51.063-51.063v-26.605h-41.935c-7.508 0-14.636 1.642-21.063 4.565v-14.568z" fill="#fedb41"/><g fill="#fcbf29"><path d="m371.014 204.81c28.156 0 51.063-22.906 51.063-51.063v-26.605h-41.935c-7.508 0-14.636 1.642-21.063 4.565v-22.897h-15v218.667h15v-34.996h11.935c28.156 0 51.063-22.906 51.063-51.063v-26.605h-41.935c-7.508 0-14.636 1.642-21.063 4.565v-14.568z"/><path d="m344.079 376.479h72.178v30h-72.178z"/></g></svg>