<svg id="Capa_1" enable-background="new 0 0 512.022 512.022" height="512" viewBox="0 0 512.022 512.022" width="512" xmlns="http://www.w3.org/2000/svg"><path d="m423.313 330.644-91.343 20.138 35.539 161.24 91.345-20.126z" fill="#ff6c6c"/><path d="m423.313 330.644-91.343 20.138 35.539 161.24 91.345-20.126z" fill="#ff3943"/><path d="m367.837 77.658-67.721 128.606 25.263 114.617 91.325-20.136z" fill="#dcdcff"/><path d="m367.837 77.658-67.721 128.606 25.263 114.617 91.325-20.136z" fill="#acacda"/><path d="m295.874 280.422h157.217v90.619h-157.217z" fill="#47568c" transform="matrix(.977 -.215 .215 .977 -61.351 88.27)"/><path d="m255.985 0c-66.151 0-120.073 53.368-120.977 119.309l-39.827 181.417 91.332 20.136 19.737-89.55c15.526 7.017 32.403 10.664 49.735 10.664 66.713 0 120.987-54.274 120.987-120.987s-54.274-120.989-120.987-120.989zm0 182.149c-33.725 0-61.162-27.437-61.162-61.161s27.438-61.162 61.162-61.162 61.161 27.438 61.161 61.162-27.436 61.161-61.161 61.161z" fill="#f2f2fc"/><path d="m255.985 0v59.826c33.725 0 61.161 27.438 61.161 61.162s-27.437 61.161-61.161 61.161v59.826c66.713 0 120.987-54.274 120.987-120.987s-54.274-120.988-120.987-120.988z" fill="#dcdcff"/><path d="m295.874 280.422h157.217v90.619h-157.217z" fill="#2c3b73" transform="matrix(.977 -.215 .215 .977 -61.351 88.27)"/><path d="m88.579 330.62-35.545 161.276 91.345 20.126 35.544-161.262z" fill="#ff6c6c"/><path d="m92.194 247.123h90.615v157.217h-90.615z" fill="#47568c" transform="matrix(.215 -.977 .977 .215 -210.195 389.878)"/></svg>