<svg id="Capa_1" enable-background="new 0 0 511.912 511.912" height="512" viewBox="0 0 511.912 511.912" width="512" xmlns="http://www.w3.org/2000/svg"><path d="m371.903 210.291h-30v-70.693c0-25.534-20.773-46.308-46.308-46.308h-79.279c-25.534 0-46.308 20.773-46.308 46.308v70.693h-30v-70.693c0-42.076 34.231-76.308 76.308-76.308h79.279c42.076 0 76.308 34.231 76.308 76.308z" fill="#47568c"/><path d="m295.596 63.29h-39.013v30h39.013c25.534 0 46.308 20.773 46.308 46.308v70.693h30v-70.693c-.001-42.077-34.232-76.308-76.308-76.308z" fill="#2c3b73"/><path d="m64.979 195.291c-35.83 0-64.979 29.149-64.979 64.978v188.354h90.004v-253.332z" fill="#fedb41"/><path d="m120.007 195.291h271.898v253.332h-271.898z" fill="#fedb41"/><g fill="#fcbf29"><path d="m256.583 195.291h135.322v253.332h-135.322z"/><path d="m446.934 195.291h-25.025v253.332h90.004v-188.354c-.001-35.829-29.15-64.978-64.979-64.978z"/><path d="m446.934 195.291h-25.025v253.332h90.004v-188.354c-.001-35.829-29.15-64.978-64.979-64.978z"/></g><path d="m100.254 175.289h-.498c-21.919 0-39.752 17.833-39.752 39.753v233.581h80.002v-233.581c0-21.92-17.833-39.753-39.752-39.753z" fill="#ff931e"/><path d="m412.156 175.289h-.498c-21.919 0-39.752 17.833-39.752 39.753v233.581h80.002v-233.581c0-21.92-17.833-39.753-39.752-39.753z" fill="#ff931e"/><path d="m412.156 175.289h-.498c-21.919 0-39.752 17.833-39.752 39.753v233.581h80.002v-233.581c0-21.92-17.833-39.753-39.752-39.753z" fill="#fc7718"/><path d="m333.584 253.956h-154.002v30h111.377v21h30v-21h12.625z" fill="#47568c"/><path d="m177.293 346.456h157.326v102.167h-157.326z" fill="#ff931e"/><path d="m256.583 253.956v30h34.376v21h30v-21h12.625v-30z" fill="#2c3b73"/><path d="m256.583 346.456h78.036v102.167h-78.036z" fill="#fc7718"/></svg>